%TF.GenerationSoftware,KiCad,Pcbnew,(6.0.8)*%
%TF.CreationDate,2023-10-01T17:03:22+02:00*%
%TF.ProjectId,macropad,6d616372-6f70-4616-942e-6b696361645f,rev?*%
%TF.SameCoordinates,Original*%
%TF.FileFunction,Legend,Bot*%
%TF.FilePolarity,Positive*%
%FSLAX46Y46*%
G04 Gerber Fmt 4.6, Leading zero omitted, Abs format (unit mm)*
G04 Created by KiCad (PCBNEW (6.0.8)) date 2023-10-01 17:03:22*
%MOMM*%
%LPD*%
G01*
G04 APERTURE LIST*
%ADD10C,0.150000*%
%ADD11C,0.010000*%
%ADD12C,0.120000*%
G04 APERTURE END LIST*
D10*
X182458571Y-87825714D02*
X182220476Y-88492380D01*
X181982380Y-87825714D01*
X181077619Y-88492380D02*
X181649047Y-88492380D01*
X181363333Y-88492380D02*
X181363333Y-87492380D01*
X181458571Y-87635238D01*
X181553809Y-87730476D01*
X181649047Y-87778095D01*
X180649047Y-88397142D02*
X180601428Y-88444761D01*
X180649047Y-88492380D01*
X180696666Y-88444761D01*
X180649047Y-88397142D01*
X180649047Y-88492380D01*
X179982380Y-87492380D02*
X179887142Y-87492380D01*
X179791904Y-87540000D01*
X179744285Y-87587619D01*
X179696666Y-87682857D01*
X179649047Y-87873333D01*
X179649047Y-88111428D01*
X179696666Y-88301904D01*
X179744285Y-88397142D01*
X179791904Y-88444761D01*
X179887142Y-88492380D01*
X179982380Y-88492380D01*
X180077619Y-88444761D01*
X180125238Y-88397142D01*
X180172857Y-88301904D01*
X180220476Y-88111428D01*
X180220476Y-87873333D01*
X180172857Y-87682857D01*
X180125238Y-87587619D01*
X180077619Y-87540000D01*
X179982380Y-87492380D01*
X181944285Y-83305714D02*
X181944285Y-84115238D01*
X181991904Y-84210476D01*
X182039523Y-84258095D01*
X182134761Y-84305714D01*
X182277619Y-84305714D01*
X182372857Y-84258095D01*
X181944285Y-83924761D02*
X182039523Y-83972380D01*
X182230000Y-83972380D01*
X182325238Y-83924761D01*
X182372857Y-83877142D01*
X182420476Y-83781904D01*
X182420476Y-83496190D01*
X182372857Y-83400952D01*
X182325238Y-83353333D01*
X182230000Y-83305714D01*
X182039523Y-83305714D01*
X181944285Y-83353333D01*
X181468095Y-83972380D02*
X181468095Y-83305714D01*
X181468095Y-82972380D02*
X181515714Y-83020000D01*
X181468095Y-83067619D01*
X181420476Y-83020000D01*
X181468095Y-82972380D01*
X181468095Y-83067619D01*
X181134761Y-83305714D02*
X180753809Y-83305714D01*
X180991904Y-82972380D02*
X180991904Y-83829523D01*
X180944285Y-83924761D01*
X180849047Y-83972380D01*
X180753809Y-83972380D01*
X180420476Y-83972380D02*
X180420476Y-82972380D01*
X179991904Y-83972380D02*
X179991904Y-83448571D01*
X180039523Y-83353333D01*
X180134761Y-83305714D01*
X180277619Y-83305714D01*
X180372857Y-83353333D01*
X180420476Y-83400952D01*
X179087142Y-83305714D02*
X179087142Y-83972380D01*
X179515714Y-83305714D02*
X179515714Y-83829523D01*
X179468095Y-83924761D01*
X179372857Y-83972380D01*
X179230000Y-83972380D01*
X179134761Y-83924761D01*
X179087142Y-83877142D01*
X178610952Y-83972380D02*
X178610952Y-82972380D01*
X178610952Y-83353333D02*
X178515714Y-83305714D01*
X178325238Y-83305714D01*
X178230000Y-83353333D01*
X178182380Y-83400952D01*
X178134761Y-83496190D01*
X178134761Y-83781904D01*
X178182380Y-83877142D01*
X178230000Y-83924761D01*
X178325238Y-83972380D01*
X178515714Y-83972380D01*
X178610952Y-83924761D01*
X177706190Y-83877142D02*
X177658571Y-83924761D01*
X177706190Y-83972380D01*
X177753809Y-83924761D01*
X177706190Y-83877142D01*
X177706190Y-83972380D01*
X176801428Y-83924761D02*
X176896666Y-83972380D01*
X177087142Y-83972380D01*
X177182380Y-83924761D01*
X177230000Y-83877142D01*
X177277619Y-83781904D01*
X177277619Y-83496190D01*
X177230000Y-83400952D01*
X177182380Y-83353333D01*
X177087142Y-83305714D01*
X176896666Y-83305714D01*
X176801428Y-83353333D01*
X176230000Y-83972380D02*
X176325238Y-83924761D01*
X176372857Y-83877142D01*
X176420476Y-83781904D01*
X176420476Y-83496190D01*
X176372857Y-83400952D01*
X176325238Y-83353333D01*
X176230000Y-83305714D01*
X176087142Y-83305714D01*
X175991904Y-83353333D01*
X175944285Y-83400952D01*
X175896666Y-83496190D01*
X175896666Y-83781904D01*
X175944285Y-83877142D01*
X175991904Y-83924761D01*
X176087142Y-83972380D01*
X176230000Y-83972380D01*
X175468095Y-83972380D02*
X175468095Y-83305714D01*
X175468095Y-83400952D02*
X175420476Y-83353333D01*
X175325238Y-83305714D01*
X175182380Y-83305714D01*
X175087142Y-83353333D01*
X175039523Y-83448571D01*
X175039523Y-83972380D01*
X175039523Y-83448571D02*
X174991904Y-83353333D01*
X174896666Y-83305714D01*
X174753809Y-83305714D01*
X174658571Y-83353333D01*
X174610952Y-83448571D01*
X174610952Y-83972380D01*
X173420476Y-82924761D02*
X174277619Y-84210476D01*
X173230000Y-83305714D02*
X172849047Y-83305714D01*
X173087142Y-82972380D02*
X173087142Y-83829523D01*
X173039523Y-83924761D01*
X172944285Y-83972380D01*
X172849047Y-83972380D01*
X172372857Y-83972380D02*
X172468095Y-83924761D01*
X172515714Y-83877142D01*
X172563333Y-83781904D01*
X172563333Y-83496190D01*
X172515714Y-83400952D01*
X172468095Y-83353333D01*
X172372857Y-83305714D01*
X172230000Y-83305714D01*
X172134761Y-83353333D01*
X172087142Y-83400952D01*
X172039523Y-83496190D01*
X172039523Y-83781904D01*
X172087142Y-83877142D01*
X172134761Y-83924761D01*
X172230000Y-83972380D01*
X172372857Y-83972380D01*
X171610952Y-83972380D02*
X171610952Y-83305714D01*
X171610952Y-83400952D02*
X171563333Y-83353333D01*
X171468095Y-83305714D01*
X171325238Y-83305714D01*
X171230000Y-83353333D01*
X171182380Y-83448571D01*
X171182380Y-83972380D01*
X171182380Y-83448571D02*
X171134761Y-83353333D01*
X171039523Y-83305714D01*
X170896666Y-83305714D01*
X170801428Y-83353333D01*
X170753809Y-83448571D01*
X170753809Y-83972380D01*
X169849047Y-83972380D02*
X169849047Y-83448571D01*
X169896666Y-83353333D01*
X169991904Y-83305714D01*
X170182380Y-83305714D01*
X170277619Y-83353333D01*
X169849047Y-83924761D02*
X169944285Y-83972380D01*
X170182380Y-83972380D01*
X170277619Y-83924761D01*
X170325238Y-83829523D01*
X170325238Y-83734285D01*
X170277619Y-83639047D01*
X170182380Y-83591428D01*
X169944285Y-83591428D01*
X169849047Y-83543809D01*
X169420476Y-83924761D02*
X169325238Y-83972380D01*
X169134761Y-83972380D01*
X169039523Y-83924761D01*
X168991904Y-83829523D01*
X168991904Y-83781904D01*
X169039523Y-83686666D01*
X169134761Y-83639047D01*
X169277619Y-83639047D01*
X169372857Y-83591428D01*
X169420476Y-83496190D01*
X169420476Y-83448571D01*
X169372857Y-83353333D01*
X169277619Y-83305714D01*
X169134761Y-83305714D01*
X169039523Y-83353333D01*
X168563333Y-83972380D02*
X168563333Y-83305714D01*
X168563333Y-83496190D02*
X168515714Y-83400952D01*
X168468095Y-83353333D01*
X168372857Y-83305714D01*
X168277619Y-83305714D01*
X167801428Y-83400952D02*
X167896666Y-83353333D01*
X167944285Y-83305714D01*
X167991904Y-83210476D01*
X167991904Y-83162857D01*
X167944285Y-83067619D01*
X167896666Y-83020000D01*
X167801428Y-82972380D01*
X167610952Y-82972380D01*
X167515714Y-83020000D01*
X167468095Y-83067619D01*
X167420476Y-83162857D01*
X167420476Y-83210476D01*
X167468095Y-83305714D01*
X167515714Y-83353333D01*
X167610952Y-83400952D01*
X167801428Y-83400952D01*
X167896666Y-83448571D01*
X167944285Y-83496190D01*
X167991904Y-83591428D01*
X167991904Y-83781904D01*
X167944285Y-83877142D01*
X167896666Y-83924761D01*
X167801428Y-83972380D01*
X167610952Y-83972380D01*
X167515714Y-83924761D01*
X167468095Y-83877142D01*
X167420476Y-83781904D01*
X167420476Y-83591428D01*
X167468095Y-83496190D01*
X167515714Y-83448571D01*
X167610952Y-83400952D01*
X166277619Y-82924761D02*
X167134761Y-84210476D01*
X165944285Y-83972380D02*
X165944285Y-83305714D01*
X165944285Y-83400952D02*
X165896666Y-83353333D01*
X165801428Y-83305714D01*
X165658571Y-83305714D01*
X165563333Y-83353333D01*
X165515714Y-83448571D01*
X165515714Y-83972380D01*
X165515714Y-83448571D02*
X165468095Y-83353333D01*
X165372857Y-83305714D01*
X165230000Y-83305714D01*
X165134761Y-83353333D01*
X165087142Y-83448571D01*
X165087142Y-83972380D01*
X164182380Y-83972380D02*
X164182380Y-83448571D01*
X164230000Y-83353333D01*
X164325238Y-83305714D01*
X164515714Y-83305714D01*
X164610952Y-83353333D01*
X164182380Y-83924761D02*
X164277619Y-83972380D01*
X164515714Y-83972380D01*
X164610952Y-83924761D01*
X164658571Y-83829523D01*
X164658571Y-83734285D01*
X164610952Y-83639047D01*
X164515714Y-83591428D01*
X164277619Y-83591428D01*
X164182380Y-83543809D01*
X163277619Y-83924761D02*
X163372857Y-83972380D01*
X163563333Y-83972380D01*
X163658571Y-83924761D01*
X163706190Y-83877142D01*
X163753809Y-83781904D01*
X163753809Y-83496190D01*
X163706190Y-83400952D01*
X163658571Y-83353333D01*
X163563333Y-83305714D01*
X163372857Y-83305714D01*
X163277619Y-83353333D01*
X162849047Y-83972380D02*
X162849047Y-83305714D01*
X162849047Y-83496190D02*
X162801428Y-83400952D01*
X162753809Y-83353333D01*
X162658571Y-83305714D01*
X162563333Y-83305714D01*
X162087142Y-83972380D02*
X162182380Y-83924761D01*
X162230000Y-83877142D01*
X162277619Y-83781904D01*
X162277619Y-83496190D01*
X162230000Y-83400952D01*
X162182380Y-83353333D01*
X162087142Y-83305714D01*
X161944285Y-83305714D01*
X161849047Y-83353333D01*
X161801428Y-83400952D01*
X161753809Y-83496190D01*
X161753809Y-83781904D01*
X161801428Y-83877142D01*
X161849047Y-83924761D01*
X161944285Y-83972380D01*
X162087142Y-83972380D01*
X161325238Y-83305714D02*
X161325238Y-84305714D01*
X161325238Y-83353333D02*
X161230000Y-83305714D01*
X161039523Y-83305714D01*
X160944285Y-83353333D01*
X160896666Y-83400952D01*
X160849047Y-83496190D01*
X160849047Y-83781904D01*
X160896666Y-83877142D01*
X160944285Y-83924761D01*
X161039523Y-83972380D01*
X161230000Y-83972380D01*
X161325238Y-83924761D01*
X159991904Y-83972380D02*
X159991904Y-83448571D01*
X160039523Y-83353333D01*
X160134761Y-83305714D01*
X160325238Y-83305714D01*
X160420476Y-83353333D01*
X159991904Y-83924761D02*
X160087142Y-83972380D01*
X160325238Y-83972380D01*
X160420476Y-83924761D01*
X160468095Y-83829523D01*
X160468095Y-83734285D01*
X160420476Y-83639047D01*
X160325238Y-83591428D01*
X160087142Y-83591428D01*
X159991904Y-83543809D01*
X159087142Y-83972380D02*
X159087142Y-82972380D01*
X159087142Y-83924761D02*
X159182380Y-83972380D01*
X159372857Y-83972380D01*
X159468095Y-83924761D01*
X159515714Y-83877142D01*
X159563333Y-83781904D01*
X159563333Y-83496190D01*
X159515714Y-83400952D01*
X159468095Y-83353333D01*
X159372857Y-83305714D01*
X159182380Y-83305714D01*
X159087142Y-83353333D01*
X182349047Y-86442380D02*
X182158571Y-86442380D01*
X182063333Y-86394761D01*
X182015714Y-86347142D01*
X181920476Y-86204285D01*
X181872857Y-86013809D01*
X181872857Y-85632857D01*
X181920476Y-85537619D01*
X181968095Y-85490000D01*
X182063333Y-85442380D01*
X182253809Y-85442380D01*
X182349047Y-85490000D01*
X182396666Y-85537619D01*
X182444285Y-85632857D01*
X182444285Y-85870952D01*
X182396666Y-85966190D01*
X182349047Y-86013809D01*
X182253809Y-86061428D01*
X182063333Y-86061428D01*
X181968095Y-86013809D01*
X181920476Y-85966190D01*
X181872857Y-85870952D01*
X180730000Y-85394761D02*
X181587142Y-86680476D01*
X180444285Y-85537619D02*
X180396666Y-85490000D01*
X180301428Y-85442380D01*
X180063333Y-85442380D01*
X179968095Y-85490000D01*
X179920476Y-85537619D01*
X179872857Y-85632857D01*
X179872857Y-85728095D01*
X179920476Y-85870952D01*
X180491904Y-86442380D01*
X179872857Y-86442380D01*
X179253809Y-85442380D02*
X179158571Y-85442380D01*
X179063333Y-85490000D01*
X179015714Y-85537619D01*
X178968095Y-85632857D01*
X178920476Y-85823333D01*
X178920476Y-86061428D01*
X178968095Y-86251904D01*
X179015714Y-86347142D01*
X179063333Y-86394761D01*
X179158571Y-86442380D01*
X179253809Y-86442380D01*
X179349047Y-86394761D01*
X179396666Y-86347142D01*
X179444285Y-86251904D01*
X179491904Y-86061428D01*
X179491904Y-85823333D01*
X179444285Y-85632857D01*
X179396666Y-85537619D01*
X179349047Y-85490000D01*
X179253809Y-85442380D01*
X178539523Y-85537619D02*
X178491904Y-85490000D01*
X178396666Y-85442380D01*
X178158571Y-85442380D01*
X178063333Y-85490000D01*
X178015714Y-85537619D01*
X177968095Y-85632857D01*
X177968095Y-85728095D01*
X178015714Y-85870952D01*
X178587142Y-86442380D01*
X177968095Y-86442380D01*
X177634761Y-85442380D02*
X177015714Y-85442380D01*
X177349047Y-85823333D01*
X177206190Y-85823333D01*
X177110952Y-85870952D01*
X177063333Y-85918571D01*
X177015714Y-86013809D01*
X177015714Y-86251904D01*
X177063333Y-86347142D01*
X177110952Y-86394761D01*
X177206190Y-86442380D01*
X177491904Y-86442380D01*
X177587142Y-86394761D01*
X177634761Y-86347142D01*
%TO.C,REF\u002A\u002A*%
G36*
X146386372Y-79201684D02*
G01*
X146477629Y-79244569D01*
X146552416Y-79318729D01*
X146567917Y-79341944D01*
X146580774Y-79368256D01*
X146589893Y-79401420D01*
X146596102Y-79447881D01*
X146600233Y-79514082D01*
X146603116Y-79606468D01*
X146605579Y-79731485D01*
X146611697Y-80078278D01*
X146560303Y-80058738D01*
X146513246Y-80040787D01*
X146478015Y-80023511D01*
X146455017Y-80001242D01*
X146441655Y-79967165D01*
X146435328Y-79914463D01*
X146433437Y-79836323D01*
X146433385Y-79725928D01*
X146433117Y-79637935D01*
X146431521Y-79553502D01*
X146427712Y-79495834D01*
X146420820Y-79457988D01*
X146409975Y-79433024D01*
X146394308Y-79414000D01*
X146355792Y-79387153D01*
X146291091Y-79377034D01*
X146227081Y-79402606D01*
X146222856Y-79405880D01*
X146209689Y-79421007D01*
X146199975Y-79445268D01*
X146192903Y-79484650D01*
X146187656Y-79545141D01*
X146183421Y-79632729D01*
X146179385Y-79753402D01*
X146169615Y-80076515D01*
X146003539Y-80002065D01*
X146003539Y-79707062D01*
X146003883Y-79626919D01*
X146006847Y-79515431D01*
X146014351Y-79432421D01*
X146028190Y-79371199D01*
X146050155Y-79325075D01*
X146082039Y-79287358D01*
X146125633Y-79251358D01*
X146188336Y-79215089D01*
X146287117Y-79191412D01*
X146386372Y-79201684D01*
G37*
D11*
X146386372Y-79201684D02*
X146477629Y-79244569D01*
X146552416Y-79318729D01*
X146567917Y-79341944D01*
X146580774Y-79368256D01*
X146589893Y-79401420D01*
X146596102Y-79447881D01*
X146600233Y-79514082D01*
X146603116Y-79606468D01*
X146605579Y-79731485D01*
X146611697Y-80078278D01*
X146560303Y-80058738D01*
X146513246Y-80040787D01*
X146478015Y-80023511D01*
X146455017Y-80001242D01*
X146441655Y-79967165D01*
X146435328Y-79914463D01*
X146433437Y-79836323D01*
X146433385Y-79725928D01*
X146433117Y-79637935D01*
X146431521Y-79553502D01*
X146427712Y-79495834D01*
X146420820Y-79457988D01*
X146409975Y-79433024D01*
X146394308Y-79414000D01*
X146355792Y-79387153D01*
X146291091Y-79377034D01*
X146227081Y-79402606D01*
X146222856Y-79405880D01*
X146209689Y-79421007D01*
X146199975Y-79445268D01*
X146192903Y-79484650D01*
X146187656Y-79545141D01*
X146183421Y-79632729D01*
X146179385Y-79753402D01*
X146169615Y-80076515D01*
X146003539Y-80002065D01*
X146003539Y-79707062D01*
X146003883Y-79626919D01*
X146006847Y-79515431D01*
X146014351Y-79432421D01*
X146028190Y-79371199D01*
X146050155Y-79325075D01*
X146082039Y-79287358D01*
X146125633Y-79251358D01*
X146188336Y-79215089D01*
X146287117Y-79191412D01*
X146386372Y-79201684D01*
G36*
X143422839Y-79724652D02*
G01*
X143411810Y-79828507D01*
X143387814Y-79906333D01*
X143348043Y-79965760D01*
X143289688Y-80014418D01*
X143234100Y-80042546D01*
X143140751Y-80058199D01*
X143047530Y-80041084D01*
X142963272Y-79993388D01*
X142896818Y-79917294D01*
X142888793Y-79903262D01*
X142878196Y-79878679D01*
X142870335Y-79847309D01*
X142864807Y-79803769D01*
X142861206Y-79742678D01*
X142859128Y-79658655D01*
X142859064Y-79651200D01*
X142994615Y-79651200D01*
X142995077Y-79722316D01*
X142997999Y-79786641D01*
X143005221Y-79828166D01*
X143018561Y-79856067D01*
X143039836Y-79879517D01*
X143044821Y-79884025D01*
X143108863Y-79917295D01*
X143176625Y-79913890D01*
X143239734Y-79874042D01*
X143258526Y-79853398D01*
X143274254Y-79826029D01*
X143283039Y-79788192D01*
X143286859Y-79730355D01*
X143287692Y-79642986D01*
X143287281Y-79576319D01*
X143284434Y-79511245D01*
X143277256Y-79469251D01*
X143263889Y-79441063D01*
X143242472Y-79417406D01*
X143229890Y-79406753D01*
X143164699Y-79378057D01*
X143096400Y-79382575D01*
X143037098Y-79420144D01*
X143024333Y-79435040D01*
X143008764Y-79463089D01*
X142999762Y-79502258D01*
X142995617Y-79561858D01*
X142994615Y-79651200D01*
X142859064Y-79651200D01*
X142858167Y-79546320D01*
X142857919Y-79400289D01*
X142857846Y-78946963D01*
X142921346Y-78973564D01*
X142938136Y-78980845D01*
X142964859Y-78997287D01*
X142980156Y-79022187D01*
X142988563Y-79065732D01*
X142994615Y-79138106D01*
X143000144Y-79203089D01*
X143007450Y-79245750D01*
X143017918Y-79261670D01*
X143033692Y-79257400D01*
X143073890Y-79242397D01*
X143145728Y-79238678D01*
X143223010Y-79252572D01*
X143289688Y-79282505D01*
X143326371Y-79310211D01*
X143373472Y-79364269D01*
X143403638Y-79433577D01*
X143419678Y-79525765D01*
X143424191Y-79642986D01*
X143424401Y-79648462D01*
X143422839Y-79724652D01*
G37*
X143422839Y-79724652D02*
X143411810Y-79828507D01*
X143387814Y-79906333D01*
X143348043Y-79965760D01*
X143289688Y-80014418D01*
X143234100Y-80042546D01*
X143140751Y-80058199D01*
X143047530Y-80041084D01*
X142963272Y-79993388D01*
X142896818Y-79917294D01*
X142888793Y-79903262D01*
X142878196Y-79878679D01*
X142870335Y-79847309D01*
X142864807Y-79803769D01*
X142861206Y-79742678D01*
X142859128Y-79658655D01*
X142859064Y-79651200D01*
X142994615Y-79651200D01*
X142995077Y-79722316D01*
X142997999Y-79786641D01*
X143005221Y-79828166D01*
X143018561Y-79856067D01*
X143039836Y-79879517D01*
X143044821Y-79884025D01*
X143108863Y-79917295D01*
X143176625Y-79913890D01*
X143239734Y-79874042D01*
X143258526Y-79853398D01*
X143274254Y-79826029D01*
X143283039Y-79788192D01*
X143286859Y-79730355D01*
X143287692Y-79642986D01*
X143287281Y-79576319D01*
X143284434Y-79511245D01*
X143277256Y-79469251D01*
X143263889Y-79441063D01*
X143242472Y-79417406D01*
X143229890Y-79406753D01*
X143164699Y-79378057D01*
X143096400Y-79382575D01*
X143037098Y-79420144D01*
X143024333Y-79435040D01*
X143008764Y-79463089D01*
X142999762Y-79502258D01*
X142995617Y-79561858D01*
X142994615Y-79651200D01*
X142859064Y-79651200D01*
X142858167Y-79546320D01*
X142857919Y-79400289D01*
X142857846Y-78946963D01*
X142921346Y-78973564D01*
X142938136Y-78980845D01*
X142964859Y-78997287D01*
X142980156Y-79022187D01*
X142988563Y-79065732D01*
X142994615Y-79138106D01*
X143000144Y-79203089D01*
X143007450Y-79245750D01*
X143017918Y-79261670D01*
X143033692Y-79257400D01*
X143073890Y-79242397D01*
X143145728Y-79238678D01*
X143223010Y-79252572D01*
X143289688Y-79282505D01*
X143326371Y-79310211D01*
X143373472Y-79364269D01*
X143403638Y-79433577D01*
X143419678Y-79525765D01*
X143424191Y-79642986D01*
X143424401Y-79648462D01*
X143422839Y-79724652D01*
G36*
X145436923Y-79001806D02*
G01*
X145436923Y-79536455D01*
X145436660Y-79675094D01*
X145435958Y-79799805D01*
X145434883Y-79905557D01*
X145433500Y-79987322D01*
X145431874Y-80040069D01*
X145430070Y-80058769D01*
X145429364Y-80058706D01*
X145405387Y-80051912D01*
X145361685Y-80037320D01*
X145300154Y-80015870D01*
X145300154Y-79740617D01*
X145299763Y-79632466D01*
X145297946Y-79554026D01*
X145293767Y-79500647D01*
X145286286Y-79465256D01*
X145274567Y-79440779D01*
X145257671Y-79420144D01*
X145246152Y-79409170D01*
X145183864Y-79378775D01*
X145115211Y-79381466D01*
X145052298Y-79417406D01*
X145043139Y-79426325D01*
X145028471Y-79444844D01*
X145018433Y-79469326D01*
X145012151Y-79506393D01*
X145008748Y-79562667D01*
X145007349Y-79644771D01*
X145007077Y-79759329D01*
X145006947Y-79817430D01*
X145006099Y-79912993D01*
X145004594Y-79989526D01*
X145002585Y-80040345D01*
X145000223Y-80058769D01*
X144999518Y-80058706D01*
X144975541Y-80051912D01*
X144931839Y-80037320D01*
X144870308Y-80015870D01*
X144870338Y-79739358D01*
X144870384Y-79714742D01*
X144872970Y-79586419D01*
X144880913Y-79489384D01*
X144896155Y-79417057D01*
X144920636Y-79362855D01*
X144956298Y-79320198D01*
X145005082Y-79282505D01*
X145052661Y-79258910D01*
X145128732Y-79240672D01*
X145203556Y-79239636D01*
X145261077Y-79257378D01*
X145265402Y-79259829D01*
X145278738Y-79259566D01*
X145287851Y-79239039D01*
X145294428Y-79191980D01*
X145300154Y-79112120D01*
X145309923Y-78948236D01*
X145436923Y-79001806D01*
G37*
X145436923Y-79001806D02*
X145436923Y-79536455D01*
X145436660Y-79675094D01*
X145435958Y-79799805D01*
X145434883Y-79905557D01*
X145433500Y-79987322D01*
X145431874Y-80040069D01*
X145430070Y-80058769D01*
X145429364Y-80058706D01*
X145405387Y-80051912D01*
X145361685Y-80037320D01*
X145300154Y-80015870D01*
X145300154Y-79740617D01*
X145299763Y-79632466D01*
X145297946Y-79554026D01*
X145293767Y-79500647D01*
X145286286Y-79465256D01*
X145274567Y-79440779D01*
X145257671Y-79420144D01*
X145246152Y-79409170D01*
X145183864Y-79378775D01*
X145115211Y-79381466D01*
X145052298Y-79417406D01*
X145043139Y-79426325D01*
X145028471Y-79444844D01*
X145018433Y-79469326D01*
X145012151Y-79506393D01*
X145008748Y-79562667D01*
X145007349Y-79644771D01*
X145007077Y-79759329D01*
X145006947Y-79817430D01*
X145006099Y-79912993D01*
X145004594Y-79989526D01*
X145002585Y-80040345D01*
X145000223Y-80058769D01*
X144999518Y-80058706D01*
X144975541Y-80051912D01*
X144931839Y-80037320D01*
X144870308Y-80015870D01*
X144870338Y-79739358D01*
X144870384Y-79714742D01*
X144872970Y-79586419D01*
X144880913Y-79489384D01*
X144896155Y-79417057D01*
X144920636Y-79362855D01*
X144956298Y-79320198D01*
X145005082Y-79282505D01*
X145052661Y-79258910D01*
X145128732Y-79240672D01*
X145203556Y-79239636D01*
X145261077Y-79257378D01*
X145265402Y-79259829D01*
X145278738Y-79259566D01*
X145287851Y-79239039D01*
X145294428Y-79191980D01*
X145300154Y-79112120D01*
X145309923Y-78948236D01*
X145436923Y-79001806D01*
G36*
X144580458Y-79259228D02*
G01*
X144647622Y-79298389D01*
X144677169Y-79328902D01*
X144733948Y-79420110D01*
X144753077Y-79519548D01*
X144753077Y-79587960D01*
X144690191Y-79561518D01*
X144646700Y-79534837D01*
X144612426Y-79479446D01*
X144608907Y-79468024D01*
X144571028Y-79409838D01*
X144513936Y-79378407D01*
X144448383Y-79377058D01*
X144385117Y-79409116D01*
X144375672Y-79417383D01*
X144344087Y-79453311D01*
X144338871Y-79484635D01*
X144362765Y-79515391D01*
X144418510Y-79549617D01*
X144508846Y-79591350D01*
X144514956Y-79593993D01*
X144615241Y-79640755D01*
X144683735Y-79682181D01*
X144725899Y-79723542D01*
X144747193Y-79770111D01*
X144753077Y-79827160D01*
X144745366Y-79890408D01*
X144706430Y-79971364D01*
X144637932Y-80029522D01*
X144588388Y-80046983D01*
X144518469Y-80056537D01*
X144450575Y-80054496D01*
X144402093Y-80040082D01*
X144396943Y-80036493D01*
X144383267Y-80011416D01*
X144392757Y-79967218D01*
X144409246Y-79932527D01*
X144435687Y-79918084D01*
X144485834Y-79918803D01*
X144555453Y-79914660D01*
X144600943Y-79886054D01*
X144616308Y-79833104D01*
X144616294Y-79831582D01*
X144606983Y-79800845D01*
X144575311Y-79772643D01*
X144513731Y-79740136D01*
X144429986Y-79700998D01*
X144374518Y-79679706D01*
X144342497Y-79681079D01*
X144327534Y-79709203D01*
X144323242Y-79768170D01*
X144323231Y-79862068D01*
X144322752Y-79920031D01*
X144320556Y-79991612D01*
X144316986Y-80040606D01*
X144312491Y-80058769D01*
X144311290Y-80058646D01*
X144285319Y-80048802D01*
X144242305Y-80028028D01*
X144182859Y-79997287D01*
X144189923Y-79720298D01*
X144190414Y-79701928D01*
X144196025Y-79572992D01*
X144205938Y-79475814D01*
X144222175Y-79403925D01*
X144246759Y-79350852D01*
X144281715Y-79310127D01*
X144329064Y-79275279D01*
X144329940Y-79274733D01*
X144406499Y-79246303D01*
X144495044Y-79241500D01*
X144580458Y-79259228D01*
G37*
X144580458Y-79259228D02*
X144647622Y-79298389D01*
X144677169Y-79328902D01*
X144733948Y-79420110D01*
X144753077Y-79519548D01*
X144753077Y-79587960D01*
X144690191Y-79561518D01*
X144646700Y-79534837D01*
X144612426Y-79479446D01*
X144608907Y-79468024D01*
X144571028Y-79409838D01*
X144513936Y-79378407D01*
X144448383Y-79377058D01*
X144385117Y-79409116D01*
X144375672Y-79417383D01*
X144344087Y-79453311D01*
X144338871Y-79484635D01*
X144362765Y-79515391D01*
X144418510Y-79549617D01*
X144508846Y-79591350D01*
X144514956Y-79593993D01*
X144615241Y-79640755D01*
X144683735Y-79682181D01*
X144725899Y-79723542D01*
X144747193Y-79770111D01*
X144753077Y-79827160D01*
X144745366Y-79890408D01*
X144706430Y-79971364D01*
X144637932Y-80029522D01*
X144588388Y-80046983D01*
X144518469Y-80056537D01*
X144450575Y-80054496D01*
X144402093Y-80040082D01*
X144396943Y-80036493D01*
X144383267Y-80011416D01*
X144392757Y-79967218D01*
X144409246Y-79932527D01*
X144435687Y-79918084D01*
X144485834Y-79918803D01*
X144555453Y-79914660D01*
X144600943Y-79886054D01*
X144616308Y-79833104D01*
X144616294Y-79831582D01*
X144606983Y-79800845D01*
X144575311Y-79772643D01*
X144513731Y-79740136D01*
X144429986Y-79700998D01*
X144374518Y-79679706D01*
X144342497Y-79681079D01*
X144327534Y-79709203D01*
X144323242Y-79768170D01*
X144323231Y-79862068D01*
X144322752Y-79920031D01*
X144320556Y-79991612D01*
X144316986Y-80040606D01*
X144312491Y-80058769D01*
X144311290Y-80058646D01*
X144285319Y-80048802D01*
X144242305Y-80028028D01*
X144182859Y-79997287D01*
X144189923Y-79720298D01*
X144190414Y-79701928D01*
X144196025Y-79572992D01*
X144205938Y-79475814D01*
X144222175Y-79403925D01*
X144246759Y-79350852D01*
X144281715Y-79310127D01*
X144329064Y-79275279D01*
X144329940Y-79274733D01*
X144406499Y-79246303D01*
X144495044Y-79241500D01*
X144580458Y-79259228D01*
G36*
X148109763Y-79868269D02*
G01*
X148110300Y-79911802D01*
X148112019Y-80057344D01*
X148112365Y-80168711D01*
X148110277Y-80249804D01*
X148104698Y-80304522D01*
X148094567Y-80336761D01*
X148078826Y-80350422D01*
X148056417Y-80349403D01*
X148026280Y-80337603D01*
X147987355Y-80318920D01*
X147979038Y-80314933D01*
X147944402Y-80295419D01*
X147926314Y-80272202D01*
X147919392Y-80233492D01*
X147918256Y-80167497D01*
X147918205Y-80049000D01*
X147796141Y-80049000D01*
X147721055Y-80045712D01*
X147662015Y-80032377D01*
X147612986Y-80005423D01*
X147609330Y-80002788D01*
X147559581Y-79958286D01*
X147524959Y-79904523D01*
X147503123Y-79834154D01*
X147491737Y-79739830D01*
X147488959Y-79633271D01*
X147683846Y-79633271D01*
X147683880Y-79651131D01*
X147685735Y-79731748D01*
X147691693Y-79784447D01*
X147703506Y-79818668D01*
X147722923Y-79843846D01*
X147724133Y-79845049D01*
X147771858Y-79877628D01*
X147818110Y-79874417D01*
X147870350Y-79834965D01*
X147883128Y-79821482D01*
X147901949Y-79793837D01*
X147912562Y-79757880D01*
X147917252Y-79703364D01*
X147918308Y-79620042D01*
X147917394Y-79569598D01*
X147907477Y-79477857D01*
X147884842Y-79417752D01*
X147847238Y-79384900D01*
X147792416Y-79374923D01*
X147769317Y-79377050D01*
X147729350Y-79398147D01*
X147702926Y-79445161D01*
X147688330Y-79522175D01*
X147683846Y-79633271D01*
X147488959Y-79633271D01*
X147488462Y-79614206D01*
X147489187Y-79522536D01*
X147492490Y-79453098D01*
X147499828Y-79404945D01*
X147512655Y-79368866D01*
X147532423Y-79335648D01*
X147550569Y-79310261D01*
X147616461Y-79241727D01*
X147691114Y-79204505D01*
X147784904Y-79192722D01*
X147892240Y-79204467D01*
X147985031Y-79246595D01*
X148058421Y-79320898D01*
X148063954Y-79328764D01*
X148076857Y-79349668D01*
X148086742Y-79373555D01*
X148094093Y-79405582D01*
X148099394Y-79450905D01*
X148103127Y-79514679D01*
X148105778Y-79602060D01*
X148106096Y-79620042D01*
X148107828Y-79718205D01*
X148109763Y-79868269D01*
G37*
X148109763Y-79868269D02*
X148110300Y-79911802D01*
X148112019Y-80057344D01*
X148112365Y-80168711D01*
X148110277Y-80249804D01*
X148104698Y-80304522D01*
X148094567Y-80336761D01*
X148078826Y-80350422D01*
X148056417Y-80349403D01*
X148026280Y-80337603D01*
X147987355Y-80318920D01*
X147979038Y-80314933D01*
X147944402Y-80295419D01*
X147926314Y-80272202D01*
X147919392Y-80233492D01*
X147918256Y-80167497D01*
X147918205Y-80049000D01*
X147796141Y-80049000D01*
X147721055Y-80045712D01*
X147662015Y-80032377D01*
X147612986Y-80005423D01*
X147609330Y-80002788D01*
X147559581Y-79958286D01*
X147524959Y-79904523D01*
X147503123Y-79834154D01*
X147491737Y-79739830D01*
X147488959Y-79633271D01*
X147683846Y-79633271D01*
X147683880Y-79651131D01*
X147685735Y-79731748D01*
X147691693Y-79784447D01*
X147703506Y-79818668D01*
X147722923Y-79843846D01*
X147724133Y-79845049D01*
X147771858Y-79877628D01*
X147818110Y-79874417D01*
X147870350Y-79834965D01*
X147883128Y-79821482D01*
X147901949Y-79793837D01*
X147912562Y-79757880D01*
X147917252Y-79703364D01*
X147918308Y-79620042D01*
X147917394Y-79569598D01*
X147907477Y-79477857D01*
X147884842Y-79417752D01*
X147847238Y-79384900D01*
X147792416Y-79374923D01*
X147769317Y-79377050D01*
X147729350Y-79398147D01*
X147702926Y-79445161D01*
X147688330Y-79522175D01*
X147683846Y-79633271D01*
X147488959Y-79633271D01*
X147488462Y-79614206D01*
X147489187Y-79522536D01*
X147492490Y-79453098D01*
X147499828Y-79404945D01*
X147512655Y-79368866D01*
X147532423Y-79335648D01*
X147550569Y-79310261D01*
X147616461Y-79241727D01*
X147691114Y-79204505D01*
X147784904Y-79192722D01*
X147892240Y-79204467D01*
X147985031Y-79246595D01*
X148058421Y-79320898D01*
X148063954Y-79328764D01*
X148076857Y-79349668D01*
X148086742Y-79373555D01*
X148094093Y-79405582D01*
X148099394Y-79450905D01*
X148103127Y-79514679D01*
X148105778Y-79602060D01*
X148106096Y-79620042D01*
X148107828Y-79718205D01*
X148109763Y-79868269D01*
G36*
X148856135Y-79650105D02*
G01*
X148855076Y-79744584D01*
X148851436Y-79810414D01*
X148843892Y-79856394D01*
X148831122Y-79891321D01*
X148811803Y-79923995D01*
X148807050Y-79930775D01*
X148756759Y-79984231D01*
X148699457Y-80024547D01*
X148670032Y-80037629D01*
X148564299Y-80059450D01*
X148459734Y-80045336D01*
X148363368Y-79997105D01*
X148282235Y-79916579D01*
X148275385Y-79905791D01*
X148253097Y-79843153D01*
X148238079Y-79755935D01*
X148230792Y-79655210D01*
X148231611Y-79562037D01*
X148428796Y-79562037D01*
X148430349Y-79691114D01*
X148430974Y-79699420D01*
X148440077Y-79770643D01*
X148456288Y-79815809D01*
X148483660Y-79846752D01*
X148529553Y-79875737D01*
X148574942Y-79877261D01*
X148621692Y-79843846D01*
X148629824Y-79835053D01*
X148645754Y-79808741D01*
X148655159Y-79770520D01*
X148659632Y-79711349D01*
X148660769Y-79622182D01*
X148658822Y-79538664D01*
X148649105Y-79459095D01*
X148629047Y-79408808D01*
X148596240Y-79382513D01*
X148548280Y-79374923D01*
X148530016Y-79376432D01*
X148478848Y-79404107D01*
X148445035Y-79466172D01*
X148428796Y-79562037D01*
X148231611Y-79562037D01*
X148231699Y-79552052D01*
X148241262Y-79457533D01*
X148259943Y-79382727D01*
X148283951Y-79332905D01*
X148351536Y-79255409D01*
X148443114Y-79207256D01*
X148555213Y-79190703D01*
X148585151Y-79191599D01*
X148673315Y-79209929D01*
X148745733Y-79256104D01*
X148812192Y-79335648D01*
X148816147Y-79341548D01*
X148834040Y-79373288D01*
X148845678Y-79409163D01*
X148852371Y-79457906D01*
X148855426Y-79528249D01*
X148856106Y-79622182D01*
X148856154Y-79628923D01*
X148856135Y-79650105D01*
G37*
X148856135Y-79650105D02*
X148855076Y-79744584D01*
X148851436Y-79810414D01*
X148843892Y-79856394D01*
X148831122Y-79891321D01*
X148811803Y-79923995D01*
X148807050Y-79930775D01*
X148756759Y-79984231D01*
X148699457Y-80024547D01*
X148670032Y-80037629D01*
X148564299Y-80059450D01*
X148459734Y-80045336D01*
X148363368Y-79997105D01*
X148282235Y-79916579D01*
X148275385Y-79905791D01*
X148253097Y-79843153D01*
X148238079Y-79755935D01*
X148230792Y-79655210D01*
X148231611Y-79562037D01*
X148428796Y-79562037D01*
X148430349Y-79691114D01*
X148430974Y-79699420D01*
X148440077Y-79770643D01*
X148456288Y-79815809D01*
X148483660Y-79846752D01*
X148529553Y-79875737D01*
X148574942Y-79877261D01*
X148621692Y-79843846D01*
X148629824Y-79835053D01*
X148645754Y-79808741D01*
X148655159Y-79770520D01*
X148659632Y-79711349D01*
X148660769Y-79622182D01*
X148658822Y-79538664D01*
X148649105Y-79459095D01*
X148629047Y-79408808D01*
X148596240Y-79382513D01*
X148548280Y-79374923D01*
X148530016Y-79376432D01*
X148478848Y-79404107D01*
X148445035Y-79466172D01*
X148428796Y-79562037D01*
X148231611Y-79562037D01*
X148231699Y-79552052D01*
X148241262Y-79457533D01*
X148259943Y-79382727D01*
X148283951Y-79332905D01*
X148351536Y-79255409D01*
X148443114Y-79207256D01*
X148555213Y-79190703D01*
X148585151Y-79191599D01*
X148673315Y-79209929D01*
X148745733Y-79256104D01*
X148812192Y-79335648D01*
X148816147Y-79341548D01*
X148834040Y-79373288D01*
X148845678Y-79409163D01*
X148852371Y-79457906D01*
X148855426Y-79528249D01*
X148856106Y-79622182D01*
X148856154Y-79628923D01*
X148856135Y-79650105D01*
G36*
X144477575Y-72907693D02*
G01*
X144613371Y-72907807D01*
X144715576Y-72908472D01*
X144789122Y-72910182D01*
X144838942Y-72913429D01*
X144869967Y-72918706D01*
X144887129Y-72926507D01*
X144895361Y-72937325D01*
X144899594Y-72951654D01*
X144899716Y-72952168D01*
X144906672Y-72985851D01*
X144919320Y-73050917D01*
X144936360Y-73140542D01*
X144956496Y-73247904D01*
X144978429Y-73366178D01*
X144980218Y-73375856D01*
X145002083Y-73490650D01*
X145022430Y-73591480D01*
X145039934Y-73672217D01*
X145053271Y-73726734D01*
X145061116Y-73748901D01*
X145061158Y-73748936D01*
X145085884Y-73761200D01*
X145136631Y-73781576D01*
X145202462Y-73805674D01*
X145206169Y-73806983D01*
X145290331Y-73838791D01*
X145388230Y-73878685D01*
X145479435Y-73918353D01*
X145629407Y-73986420D01*
X145961499Y-73759639D01*
X145984889Y-73743688D01*
X146085080Y-73675890D01*
X146174480Y-73616208D01*
X146247745Y-73568156D01*
X146299527Y-73535250D01*
X146324480Y-73521004D01*
X146341577Y-73524270D01*
X146380395Y-73549571D01*
X146440385Y-73599675D01*
X146523210Y-73675989D01*
X146630535Y-73779922D01*
X146640139Y-73789382D01*
X146725302Y-73874145D01*
X146800949Y-73950937D01*
X146862449Y-74014947D01*
X146905173Y-74061361D01*
X146924489Y-74085369D01*
X146924552Y-74085485D01*
X146927006Y-74103763D01*
X146917956Y-74133411D01*
X146895119Y-74178486D01*
X146856213Y-74243044D01*
X146798954Y-74331140D01*
X146721059Y-74446830D01*
X146707785Y-74466357D01*
X146640652Y-74565278D01*
X146581410Y-74652848D01*
X146533588Y-74723831D01*
X146500715Y-74772991D01*
X146486318Y-74795095D01*
X146485232Y-74799777D01*
X146492044Y-74834710D01*
X146512450Y-74891753D01*
X146543123Y-74961172D01*
X146584808Y-75051959D01*
X146631352Y-75159686D01*
X146670877Y-75257192D01*
X146680676Y-75282430D01*
X146706340Y-75346870D01*
X146725193Y-75391763D01*
X146733710Y-75408616D01*
X146743111Y-75409875D01*
X146785363Y-75417159D01*
X146854521Y-75429739D01*
X146943387Y-75446246D01*
X147044768Y-75465312D01*
X147151467Y-75485569D01*
X147256288Y-75505647D01*
X147352036Y-75524179D01*
X147431516Y-75539795D01*
X147487530Y-75551127D01*
X147512885Y-75556807D01*
X147517088Y-75558408D01*
X147527334Y-75567045D01*
X147534957Y-75585433D01*
X147540338Y-75618460D01*
X147543859Y-75671013D01*
X147545901Y-75747979D01*
X147546847Y-75854246D01*
X147547077Y-75994701D01*
X147547077Y-76421845D01*
X147444500Y-76442091D01*
X147432092Y-76444518D01*
X147366199Y-76457088D01*
X147275084Y-76474170D01*
X147169104Y-76493829D01*
X147058615Y-76514132D01*
X147015105Y-76522299D01*
X146917882Y-76542167D01*
X146836858Y-76560954D01*
X146779477Y-76576859D01*
X146753187Y-76588079D01*
X146741273Y-76606411D01*
X146719583Y-76654916D01*
X146697395Y-76717692D01*
X146689585Y-76741200D01*
X146660835Y-76818366D01*
X146623752Y-76909694D01*
X146584375Y-77000093D01*
X146563315Y-77047310D01*
X146533311Y-77117837D01*
X146512692Y-77170655D01*
X146505026Y-77196912D01*
X146505452Y-77198894D01*
X146519993Y-77226751D01*
X146552783Y-77280510D01*
X146600493Y-77354963D01*
X146659798Y-77444897D01*
X146727369Y-77545104D01*
X146949713Y-77871416D01*
X146657601Y-78164016D01*
X146629349Y-78192171D01*
X146542961Y-78276449D01*
X146465756Y-78349128D01*
X146402258Y-78406112D01*
X146356990Y-78443307D01*
X146334474Y-78456616D01*
X146310023Y-78446490D01*
X146258819Y-78417421D01*
X146186747Y-78372896D01*
X146099460Y-78316411D01*
X146002612Y-78251462D01*
X145907486Y-78187314D01*
X145821669Y-78130827D01*
X145751652Y-78086184D01*
X145702876Y-78056855D01*
X145680783Y-78046308D01*
X145679488Y-78046404D01*
X145650139Y-78056802D01*
X145598093Y-78081012D01*
X145533708Y-78114249D01*
X145533032Y-78114613D01*
X145447521Y-78157441D01*
X145388926Y-78178365D01*
X145352571Y-78178423D01*
X145333775Y-78158654D01*
X145325819Y-78139195D01*
X145304347Y-78087080D01*
X145271273Y-78006964D01*
X145228356Y-77903107D01*
X145177356Y-77779767D01*
X145120033Y-77641201D01*
X145058146Y-77491670D01*
X145002052Y-77355636D01*
X144944977Y-77216050D01*
X144894479Y-77091315D01*
X144852254Y-76985672D01*
X144819995Y-76903365D01*
X144799397Y-76848635D01*
X144792154Y-76825726D01*
X144805986Y-76804718D01*
X144844412Y-76769642D01*
X144898807Y-76728887D01*
X145029395Y-76622267D01*
X145146260Y-76486025D01*
X145231780Y-76336118D01*
X145285431Y-76176971D01*
X145306684Y-76013012D01*
X145295014Y-75848667D01*
X145249894Y-75688361D01*
X145170797Y-75536520D01*
X145057197Y-75397572D01*
X144997965Y-75343460D01*
X144856054Y-75247782D01*
X144704206Y-75185405D01*
X144546861Y-75154844D01*
X144388456Y-75154615D01*
X144233429Y-75183232D01*
X144086220Y-75239210D01*
X143951266Y-75321064D01*
X143833005Y-75427309D01*
X143735877Y-75556459D01*
X143664318Y-75707031D01*
X143622769Y-75877539D01*
X143615143Y-75959722D01*
X143625634Y-76137775D01*
X143672882Y-76306704D01*
X143755489Y-76463522D01*
X143872059Y-76605245D01*
X144021193Y-76728887D01*
X144073561Y-76767982D01*
X144112832Y-76803443D01*
X144127846Y-76825692D01*
X144121859Y-76845088D01*
X144102432Y-76897059D01*
X144071194Y-76977002D01*
X144029839Y-77080673D01*
X143980061Y-77203832D01*
X143923553Y-77342234D01*
X143862009Y-77491637D01*
X143806008Y-77627020D01*
X143748184Y-77766852D01*
X143696500Y-77891872D01*
X143652718Y-77997822D01*
X143618597Y-78080441D01*
X143595898Y-78135472D01*
X143586380Y-78158654D01*
X143586269Y-78158928D01*
X143567228Y-78178503D01*
X143530694Y-78178279D01*
X143471954Y-78157210D01*
X143386292Y-78114249D01*
X143379549Y-78110631D01*
X143315938Y-78078087D01*
X143265707Y-78055050D01*
X143239218Y-78046308D01*
X143217506Y-78056639D01*
X143168984Y-78085788D01*
X143099163Y-78130287D01*
X143013484Y-78186668D01*
X142917388Y-78251462D01*
X142822706Y-78314984D01*
X142735132Y-78371705D01*
X142662642Y-78416547D01*
X142610889Y-78446016D01*
X142585526Y-78456616D01*
X142581206Y-78455270D01*
X142551092Y-78434056D01*
X142499640Y-78390237D01*
X142431375Y-78327909D01*
X142350820Y-78251170D01*
X142262500Y-78164116D01*
X141970488Y-77871617D01*
X142425360Y-77202525D01*
X142356208Y-77052916D01*
X142356003Y-77052473D01*
X142314477Y-76957101D01*
X142272044Y-76850896D01*
X142237858Y-76756769D01*
X142232684Y-76741588D01*
X142206601Y-76671109D01*
X142183081Y-76616342D01*
X142166677Y-76588079D01*
X142159996Y-76584088D01*
X142119892Y-76570697D01*
X142051795Y-76553373D01*
X141963145Y-76533917D01*
X141861385Y-76514132D01*
X141830904Y-76508551D01*
X141720628Y-76488233D01*
X141617731Y-76469095D01*
X141532569Y-76453070D01*
X141475500Y-76442091D01*
X141372923Y-76421845D01*
X141372923Y-75994701D01*
X141372946Y-75942180D01*
X141373379Y-75814047D01*
X141374659Y-75718420D01*
X141377168Y-75650411D01*
X141381286Y-75605133D01*
X141387395Y-75577697D01*
X141395878Y-75563218D01*
X141407115Y-75556807D01*
X141417994Y-75554209D01*
X141462347Y-75545022D01*
X141533106Y-75530991D01*
X141623074Y-75513486D01*
X141725056Y-75493874D01*
X141831857Y-75473525D01*
X141936281Y-75453807D01*
X142031132Y-75436089D01*
X142109214Y-75421738D01*
X142163332Y-75412124D01*
X142186291Y-75408616D01*
X142187842Y-75406497D01*
X142200325Y-75379006D01*
X142221927Y-75326406D01*
X142249123Y-75257192D01*
X142286866Y-75163937D01*
X142333328Y-75056159D01*
X142376878Y-74961172D01*
X142386858Y-74939851D01*
X142414862Y-74873086D01*
X142431641Y-74821590D01*
X142433854Y-74795095D01*
X142432713Y-74793218D01*
X142414584Y-74765565D01*
X142378644Y-74711849D01*
X142328418Y-74637303D01*
X142267430Y-74547162D01*
X142199205Y-74446657D01*
X142122330Y-74332470D01*
X142064663Y-74243770D01*
X142025426Y-74178721D01*
X142002350Y-74133295D01*
X141993166Y-74103463D01*
X141995604Y-74085195D01*
X141996424Y-74083825D01*
X142018477Y-74057205D01*
X142063436Y-74008697D01*
X142126673Y-73943108D01*
X142203559Y-73865247D01*
X142289465Y-73779922D01*
X142378579Y-73693334D01*
X142465872Y-73611947D01*
X142530018Y-73557035D01*
X142572679Y-73527190D01*
X142595521Y-73521004D01*
X142598505Y-73522394D01*
X142629936Y-73541127D01*
X142686997Y-73577733D01*
X142764343Y-73628697D01*
X142856626Y-73690504D01*
X142958502Y-73759639D01*
X143290593Y-73986420D01*
X143440566Y-73918353D01*
X143444923Y-73916381D01*
X143537000Y-73876491D01*
X143634683Y-73836818D01*
X143717539Y-73805674D01*
X143717905Y-73805545D01*
X143783685Y-73781456D01*
X143834323Y-73761110D01*
X143858884Y-73748901D01*
X143859282Y-73748458D01*
X143867619Y-73723456D01*
X143881341Y-73666598D01*
X143899123Y-73584014D01*
X143919641Y-73481831D01*
X143941571Y-73366178D01*
X143942336Y-73362033D01*
X143964229Y-73244019D01*
X143984281Y-73137151D01*
X144001192Y-73048252D01*
X144013667Y-72984145D01*
X144020406Y-72951654D01*
X144020837Y-72949853D01*
X144025273Y-72935944D01*
X144034263Y-72925489D01*
X144052737Y-72917996D01*
X144085628Y-72912972D01*
X144137868Y-72909922D01*
X144214388Y-72908355D01*
X144320122Y-72907776D01*
X144460000Y-72907692D01*
X144477575Y-72907693D01*
G37*
X144477575Y-72907693D02*
X144613371Y-72907807D01*
X144715576Y-72908472D01*
X144789122Y-72910182D01*
X144838942Y-72913429D01*
X144869967Y-72918706D01*
X144887129Y-72926507D01*
X144895361Y-72937325D01*
X144899594Y-72951654D01*
X144899716Y-72952168D01*
X144906672Y-72985851D01*
X144919320Y-73050917D01*
X144936360Y-73140542D01*
X144956496Y-73247904D01*
X144978429Y-73366178D01*
X144980218Y-73375856D01*
X145002083Y-73490650D01*
X145022430Y-73591480D01*
X145039934Y-73672217D01*
X145053271Y-73726734D01*
X145061116Y-73748901D01*
X145061158Y-73748936D01*
X145085884Y-73761200D01*
X145136631Y-73781576D01*
X145202462Y-73805674D01*
X145206169Y-73806983D01*
X145290331Y-73838791D01*
X145388230Y-73878685D01*
X145479435Y-73918353D01*
X145629407Y-73986420D01*
X145961499Y-73759639D01*
X145984889Y-73743688D01*
X146085080Y-73675890D01*
X146174480Y-73616208D01*
X146247745Y-73568156D01*
X146299527Y-73535250D01*
X146324480Y-73521004D01*
X146341577Y-73524270D01*
X146380395Y-73549571D01*
X146440385Y-73599675D01*
X146523210Y-73675989D01*
X146630535Y-73779922D01*
X146640139Y-73789382D01*
X146725302Y-73874145D01*
X146800949Y-73950937D01*
X146862449Y-74014947D01*
X146905173Y-74061361D01*
X146924489Y-74085369D01*
X146924552Y-74085485D01*
X146927006Y-74103763D01*
X146917956Y-74133411D01*
X146895119Y-74178486D01*
X146856213Y-74243044D01*
X146798954Y-74331140D01*
X146721059Y-74446830D01*
X146707785Y-74466357D01*
X146640652Y-74565278D01*
X146581410Y-74652848D01*
X146533588Y-74723831D01*
X146500715Y-74772991D01*
X146486318Y-74795095D01*
X146485232Y-74799777D01*
X146492044Y-74834710D01*
X146512450Y-74891753D01*
X146543123Y-74961172D01*
X146584808Y-75051959D01*
X146631352Y-75159686D01*
X146670877Y-75257192D01*
X146680676Y-75282430D01*
X146706340Y-75346870D01*
X146725193Y-75391763D01*
X146733710Y-75408616D01*
X146743111Y-75409875D01*
X146785363Y-75417159D01*
X146854521Y-75429739D01*
X146943387Y-75446246D01*
X147044768Y-75465312D01*
X147151467Y-75485569D01*
X147256288Y-75505647D01*
X147352036Y-75524179D01*
X147431516Y-75539795D01*
X147487530Y-75551127D01*
X147512885Y-75556807D01*
X147517088Y-75558408D01*
X147527334Y-75567045D01*
X147534957Y-75585433D01*
X147540338Y-75618460D01*
X147543859Y-75671013D01*
X147545901Y-75747979D01*
X147546847Y-75854246D01*
X147547077Y-75994701D01*
X147547077Y-76421845D01*
X147444500Y-76442091D01*
X147432092Y-76444518D01*
X147366199Y-76457088D01*
X147275084Y-76474170D01*
X147169104Y-76493829D01*
X147058615Y-76514132D01*
X147015105Y-76522299D01*
X146917882Y-76542167D01*
X146836858Y-76560954D01*
X146779477Y-76576859D01*
X146753187Y-76588079D01*
X146741273Y-76606411D01*
X146719583Y-76654916D01*
X146697395Y-76717692D01*
X146689585Y-76741200D01*
X146660835Y-76818366D01*
X146623752Y-76909694D01*
X146584375Y-77000093D01*
X146563315Y-77047310D01*
X146533311Y-77117837D01*
X146512692Y-77170655D01*
X146505026Y-77196912D01*
X146505452Y-77198894D01*
X146519993Y-77226751D01*
X146552783Y-77280510D01*
X146600493Y-77354963D01*
X146659798Y-77444897D01*
X146727369Y-77545104D01*
X146949713Y-77871416D01*
X146657601Y-78164016D01*
X146629349Y-78192171D01*
X146542961Y-78276449D01*
X146465756Y-78349128D01*
X146402258Y-78406112D01*
X146356990Y-78443307D01*
X146334474Y-78456616D01*
X146310023Y-78446490D01*
X146258819Y-78417421D01*
X146186747Y-78372896D01*
X146099460Y-78316411D01*
X146002612Y-78251462D01*
X145907486Y-78187314D01*
X145821669Y-78130827D01*
X145751652Y-78086184D01*
X145702876Y-78056855D01*
X145680783Y-78046308D01*
X145679488Y-78046404D01*
X145650139Y-78056802D01*
X145598093Y-78081012D01*
X145533708Y-78114249D01*
X145533032Y-78114613D01*
X145447521Y-78157441D01*
X145388926Y-78178365D01*
X145352571Y-78178423D01*
X145333775Y-78158654D01*
X145325819Y-78139195D01*
X145304347Y-78087080D01*
X145271273Y-78006964D01*
X145228356Y-77903107D01*
X145177356Y-77779767D01*
X145120033Y-77641201D01*
X145058146Y-77491670D01*
X145002052Y-77355636D01*
X144944977Y-77216050D01*
X144894479Y-77091315D01*
X144852254Y-76985672D01*
X144819995Y-76903365D01*
X144799397Y-76848635D01*
X144792154Y-76825726D01*
X144805986Y-76804718D01*
X144844412Y-76769642D01*
X144898807Y-76728887D01*
X145029395Y-76622267D01*
X145146260Y-76486025D01*
X145231780Y-76336118D01*
X145285431Y-76176971D01*
X145306684Y-76013012D01*
X145295014Y-75848667D01*
X145249894Y-75688361D01*
X145170797Y-75536520D01*
X145057197Y-75397572D01*
X144997965Y-75343460D01*
X144856054Y-75247782D01*
X144704206Y-75185405D01*
X144546861Y-75154844D01*
X144388456Y-75154615D01*
X144233429Y-75183232D01*
X144086220Y-75239210D01*
X143951266Y-75321064D01*
X143833005Y-75427309D01*
X143735877Y-75556459D01*
X143664318Y-75707031D01*
X143622769Y-75877539D01*
X143615143Y-75959722D01*
X143625634Y-76137775D01*
X143672882Y-76306704D01*
X143755489Y-76463522D01*
X143872059Y-76605245D01*
X144021193Y-76728887D01*
X144073561Y-76767982D01*
X144112832Y-76803443D01*
X144127846Y-76825692D01*
X144121859Y-76845088D01*
X144102432Y-76897059D01*
X144071194Y-76977002D01*
X144029839Y-77080673D01*
X143980061Y-77203832D01*
X143923553Y-77342234D01*
X143862009Y-77491637D01*
X143806008Y-77627020D01*
X143748184Y-77766852D01*
X143696500Y-77891872D01*
X143652718Y-77997822D01*
X143618597Y-78080441D01*
X143595898Y-78135472D01*
X143586380Y-78158654D01*
X143586269Y-78158928D01*
X143567228Y-78178503D01*
X143530694Y-78178279D01*
X143471954Y-78157210D01*
X143386292Y-78114249D01*
X143379549Y-78110631D01*
X143315938Y-78078087D01*
X143265707Y-78055050D01*
X143239218Y-78046308D01*
X143217506Y-78056639D01*
X143168984Y-78085788D01*
X143099163Y-78130287D01*
X143013484Y-78186668D01*
X142917388Y-78251462D01*
X142822706Y-78314984D01*
X142735132Y-78371705D01*
X142662642Y-78416547D01*
X142610889Y-78446016D01*
X142585526Y-78456616D01*
X142581206Y-78455270D01*
X142551092Y-78434056D01*
X142499640Y-78390237D01*
X142431375Y-78327909D01*
X142350820Y-78251170D01*
X142262500Y-78164116D01*
X141970488Y-77871617D01*
X142425360Y-77202525D01*
X142356208Y-77052916D01*
X142356003Y-77052473D01*
X142314477Y-76957101D01*
X142272044Y-76850896D01*
X142237858Y-76756769D01*
X142232684Y-76741588D01*
X142206601Y-76671109D01*
X142183081Y-76616342D01*
X142166677Y-76588079D01*
X142159996Y-76584088D01*
X142119892Y-76570697D01*
X142051795Y-76553373D01*
X141963145Y-76533917D01*
X141861385Y-76514132D01*
X141830904Y-76508551D01*
X141720628Y-76488233D01*
X141617731Y-76469095D01*
X141532569Y-76453070D01*
X141475500Y-76442091D01*
X141372923Y-76421845D01*
X141372923Y-75994701D01*
X141372946Y-75942180D01*
X141373379Y-75814047D01*
X141374659Y-75718420D01*
X141377168Y-75650411D01*
X141381286Y-75605133D01*
X141387395Y-75577697D01*
X141395878Y-75563218D01*
X141407115Y-75556807D01*
X141417994Y-75554209D01*
X141462347Y-75545022D01*
X141533106Y-75530991D01*
X141623074Y-75513486D01*
X141725056Y-75493874D01*
X141831857Y-75473525D01*
X141936281Y-75453807D01*
X142031132Y-75436089D01*
X142109214Y-75421738D01*
X142163332Y-75412124D01*
X142186291Y-75408616D01*
X142187842Y-75406497D01*
X142200325Y-75379006D01*
X142221927Y-75326406D01*
X142249123Y-75257192D01*
X142286866Y-75163937D01*
X142333328Y-75056159D01*
X142376878Y-74961172D01*
X142386858Y-74939851D01*
X142414862Y-74873086D01*
X142431641Y-74821590D01*
X142433854Y-74795095D01*
X142432713Y-74793218D01*
X142414584Y-74765565D01*
X142378644Y-74711849D01*
X142328418Y-74637303D01*
X142267430Y-74547162D01*
X142199205Y-74446657D01*
X142122330Y-74332470D01*
X142064663Y-74243770D01*
X142025426Y-74178721D01*
X142002350Y-74133295D01*
X141993166Y-74103463D01*
X141995604Y-74085195D01*
X141996424Y-74083825D01*
X142018477Y-74057205D01*
X142063436Y-74008697D01*
X142126673Y-73943108D01*
X142203559Y-73865247D01*
X142289465Y-73779922D01*
X142378579Y-73693334D01*
X142465872Y-73611947D01*
X142530018Y-73557035D01*
X142572679Y-73527190D01*
X142595521Y-73521004D01*
X142598505Y-73522394D01*
X142629936Y-73541127D01*
X142686997Y-73577733D01*
X142764343Y-73628697D01*
X142856626Y-73690504D01*
X142958502Y-73759639D01*
X143290593Y-73986420D01*
X143440566Y-73918353D01*
X143444923Y-73916381D01*
X143537000Y-73876491D01*
X143634683Y-73836818D01*
X143717539Y-73805674D01*
X143717905Y-73805545D01*
X143783685Y-73781456D01*
X143834323Y-73761110D01*
X143858884Y-73748901D01*
X143859282Y-73748458D01*
X143867619Y-73723456D01*
X143881341Y-73666598D01*
X143899123Y-73584014D01*
X143919641Y-73481831D01*
X143941571Y-73366178D01*
X143942336Y-73362033D01*
X143964229Y-73244019D01*
X143984281Y-73137151D01*
X144001192Y-73048252D01*
X144013667Y-72984145D01*
X144020406Y-72951654D01*
X144020837Y-72949853D01*
X144025273Y-72935944D01*
X144034263Y-72925489D01*
X144052737Y-72917996D01*
X144085628Y-72912972D01*
X144137868Y-72909922D01*
X144214388Y-72908355D01*
X144320122Y-72907776D01*
X144460000Y-72907692D01*
X144477575Y-72907693D01*
G36*
X142647998Y-79244034D02*
G01*
X142690850Y-79260829D01*
X142740615Y-79283503D01*
X142740615Y-79938533D01*
X142678785Y-80000363D01*
X142664662Y-80014228D01*
X142625536Y-80045046D01*
X142586078Y-80055028D01*
X142527362Y-80050433D01*
X142503456Y-80047462D01*
X142441801Y-80041176D01*
X142398692Y-80038672D01*
X142385905Y-80039055D01*
X142333446Y-80043200D01*
X142270022Y-80050433D01*
X142249730Y-80052918D01*
X142198610Y-80053895D01*
X142161207Y-80038462D01*
X142118599Y-80000363D01*
X142056769Y-79938533D01*
X142056769Y-79588343D01*
X142057251Y-79484857D01*
X142058753Y-79386192D01*
X142061089Y-79308068D01*
X142064071Y-79256662D01*
X142067509Y-79238154D01*
X142068230Y-79238204D01*
X142093203Y-79247413D01*
X142135399Y-79267707D01*
X142192549Y-79297261D01*
X142197928Y-79604746D01*
X142203308Y-79912231D01*
X142320539Y-79912231D01*
X142325885Y-79575192D01*
X142327579Y-79483574D01*
X142330005Y-79385649D01*
X142332634Y-79307906D01*
X142335246Y-79256642D01*
X142337623Y-79238154D01*
X142338306Y-79238219D01*
X142361996Y-79245020D01*
X142405546Y-79259604D01*
X142467077Y-79281054D01*
X142467376Y-79577104D01*
X142467676Y-79628532D01*
X142469754Y-79728466D01*
X142473470Y-79811925D01*
X142478430Y-79871377D01*
X142484240Y-79899287D01*
X142505024Y-79914214D01*
X142547440Y-79918825D01*
X142594077Y-79912231D01*
X142599423Y-79575192D01*
X142601336Y-79489546D01*
X142605303Y-79388172D01*
X142610491Y-79308655D01*
X142616499Y-79256736D01*
X142622927Y-79238154D01*
X142647998Y-79244034D01*
G37*
X142647998Y-79244034D02*
X142690850Y-79260829D01*
X142740615Y-79283503D01*
X142740615Y-79938533D01*
X142678785Y-80000363D01*
X142664662Y-80014228D01*
X142625536Y-80045046D01*
X142586078Y-80055028D01*
X142527362Y-80050433D01*
X142503456Y-80047462D01*
X142441801Y-80041176D01*
X142398692Y-80038672D01*
X142385905Y-80039055D01*
X142333446Y-80043200D01*
X142270022Y-80050433D01*
X142249730Y-80052918D01*
X142198610Y-80053895D01*
X142161207Y-80038462D01*
X142118599Y-80000363D01*
X142056769Y-79938533D01*
X142056769Y-79588343D01*
X142057251Y-79484857D01*
X142058753Y-79386192D01*
X142061089Y-79308068D01*
X142064071Y-79256662D01*
X142067509Y-79238154D01*
X142068230Y-79238204D01*
X142093203Y-79247413D01*
X142135399Y-79267707D01*
X142192549Y-79297261D01*
X142197928Y-79604746D01*
X142203308Y-79912231D01*
X142320539Y-79912231D01*
X142325885Y-79575192D01*
X142327579Y-79483574D01*
X142330005Y-79385649D01*
X142332634Y-79307906D01*
X142335246Y-79256642D01*
X142337623Y-79238154D01*
X142338306Y-79238219D01*
X142361996Y-79245020D01*
X142405546Y-79259604D01*
X142467077Y-79281054D01*
X142467376Y-79577104D01*
X142467676Y-79628532D01*
X142469754Y-79728466D01*
X142473470Y-79811925D01*
X142478430Y-79871377D01*
X142484240Y-79899287D01*
X142505024Y-79914214D01*
X142547440Y-79918825D01*
X142594077Y-79912231D01*
X142599423Y-79575192D01*
X142601336Y-79489546D01*
X142605303Y-79388172D01*
X142610491Y-79308655D01*
X142616499Y-79256736D01*
X142622927Y-79238154D01*
X142647998Y-79244034D01*
G36*
X141723936Y-79239911D02*
G01*
X141765807Y-79250547D01*
X141804791Y-79277062D01*
X141854965Y-79326420D01*
X141887232Y-79361279D01*
X141920844Y-79406534D01*
X141936003Y-79448951D01*
X141939539Y-79502768D01*
X141939539Y-79590850D01*
X141879470Y-79559787D01*
X141831867Y-79521936D01*
X141799261Y-79470950D01*
X141793661Y-79457088D01*
X141750992Y-79403358D01*
X141691707Y-79376417D01*
X141627061Y-79379039D01*
X141568308Y-79414000D01*
X141543450Y-79442394D01*
X141528970Y-79478718D01*
X141544470Y-79511046D01*
X141592667Y-79543565D01*
X141676274Y-79580461D01*
X141688962Y-79585557D01*
X141765078Y-79618907D01*
X141830396Y-79651793D01*
X141871953Y-79677769D01*
X141913576Y-79724167D01*
X141941247Y-79798211D01*
X141938310Y-79877670D01*
X141905571Y-79952868D01*
X141843841Y-80014131D01*
X141793858Y-80040210D01*
X141697303Y-80058470D01*
X141643647Y-80056007D01*
X141593976Y-80042687D01*
X141574919Y-80014739D01*
X141582045Y-79968710D01*
X141584118Y-79962624D01*
X141600556Y-79930349D01*
X141627926Y-79918133D01*
X141680068Y-79918950D01*
X141716884Y-79920061D01*
X141759961Y-79910528D01*
X141789475Y-79882026D01*
X141806286Y-79846935D01*
X141808161Y-79810175D01*
X141808074Y-79809961D01*
X141786279Y-79790098D01*
X141739632Y-79761192D01*
X141679278Y-79728886D01*
X141616360Y-79698823D01*
X141562023Y-79676646D01*
X141527410Y-79668000D01*
X141522260Y-79676467D01*
X141515778Y-79716309D01*
X141511339Y-79781371D01*
X141509692Y-79863385D01*
X141509309Y-79920153D01*
X141507505Y-79991648D01*
X141504558Y-80040610D01*
X141500843Y-80058769D01*
X141481424Y-80052667D01*
X141442227Y-80036095D01*
X141392462Y-80013420D01*
X141392462Y-79722509D01*
X141392780Y-79647940D01*
X141395789Y-79534701D01*
X141403454Y-79450692D01*
X141417562Y-79389520D01*
X141439899Y-79344795D01*
X141472253Y-79310124D01*
X141516410Y-79279117D01*
X141572667Y-79253528D01*
X141676540Y-79238154D01*
X141723936Y-79239911D01*
G37*
X141723936Y-79239911D02*
X141765807Y-79250547D01*
X141804791Y-79277062D01*
X141854965Y-79326420D01*
X141887232Y-79361279D01*
X141920844Y-79406534D01*
X141936003Y-79448951D01*
X141939539Y-79502768D01*
X141939539Y-79590850D01*
X141879470Y-79559787D01*
X141831867Y-79521936D01*
X141799261Y-79470950D01*
X141793661Y-79457088D01*
X141750992Y-79403358D01*
X141691707Y-79376417D01*
X141627061Y-79379039D01*
X141568308Y-79414000D01*
X141543450Y-79442394D01*
X141528970Y-79478718D01*
X141544470Y-79511046D01*
X141592667Y-79543565D01*
X141676274Y-79580461D01*
X141688962Y-79585557D01*
X141765078Y-79618907D01*
X141830396Y-79651793D01*
X141871953Y-79677769D01*
X141913576Y-79724167D01*
X141941247Y-79798211D01*
X141938310Y-79877670D01*
X141905571Y-79952868D01*
X141843841Y-80014131D01*
X141793858Y-80040210D01*
X141697303Y-80058470D01*
X141643647Y-80056007D01*
X141593976Y-80042687D01*
X141574919Y-80014739D01*
X141582045Y-79968710D01*
X141584118Y-79962624D01*
X141600556Y-79930349D01*
X141627926Y-79918133D01*
X141680068Y-79918950D01*
X141716884Y-79920061D01*
X141759961Y-79910528D01*
X141789475Y-79882026D01*
X141806286Y-79846935D01*
X141808161Y-79810175D01*
X141808074Y-79809961D01*
X141786279Y-79790098D01*
X141739632Y-79761192D01*
X141679278Y-79728886D01*
X141616360Y-79698823D01*
X141562023Y-79676646D01*
X141527410Y-79668000D01*
X141522260Y-79676467D01*
X141515778Y-79716309D01*
X141511339Y-79781371D01*
X141509692Y-79863385D01*
X141509309Y-79920153D01*
X141507505Y-79991648D01*
X141504558Y-80040610D01*
X141500843Y-80058769D01*
X141481424Y-80052667D01*
X141442227Y-80036095D01*
X141392462Y-80013420D01*
X141392462Y-79722509D01*
X141392780Y-79647940D01*
X141395789Y-79534701D01*
X141403454Y-79450692D01*
X141417562Y-79389520D01*
X141439899Y-79344795D01*
X141472253Y-79310124D01*
X141516410Y-79279117D01*
X141572667Y-79253528D01*
X141676540Y-79238154D01*
X141723936Y-79239911D01*
G36*
X147364574Y-79721643D02*
G01*
X147361066Y-79753021D01*
X147334927Y-79864705D01*
X147287694Y-79949642D01*
X147215862Y-80014741D01*
X147211802Y-80017428D01*
X147120487Y-80055634D01*
X147025144Y-80059034D01*
X146933274Y-80029939D01*
X146852379Y-79970660D01*
X146789962Y-79883510D01*
X146788914Y-79881409D01*
X146768173Y-79827289D01*
X146752980Y-79765781D01*
X146744921Y-79708039D01*
X146745582Y-79665215D01*
X146756548Y-79648462D01*
X146766290Y-79649480D01*
X146812877Y-79668009D01*
X146865682Y-79702081D01*
X146910603Y-79741522D01*
X146933535Y-79776155D01*
X146957373Y-79823133D01*
X147006230Y-79865862D01*
X147062963Y-79882923D01*
X147083758Y-79877990D01*
X147124804Y-79853157D01*
X147160557Y-79818685D01*
X147175846Y-79787411D01*
X147175842Y-79787295D01*
X147158495Y-79772933D01*
X147112247Y-79747025D01*
X147044067Y-79713210D01*
X146960923Y-79675129D01*
X146960466Y-79674927D01*
X146870138Y-79634709D01*
X146809592Y-79605733D01*
X146772888Y-79583474D01*
X146754086Y-79563407D01*
X146747246Y-79541009D01*
X146746429Y-79511756D01*
X146752113Y-79456363D01*
X146945000Y-79456363D01*
X146964911Y-79473777D01*
X147014521Y-79499872D01*
X147015976Y-79500610D01*
X147074506Y-79528483D01*
X147126868Y-79550719D01*
X147160086Y-79560126D01*
X147173410Y-79547552D01*
X147175846Y-79504468D01*
X147165724Y-79450847D01*
X147130631Y-79402119D01*
X147079823Y-79376856D01*
X147023181Y-79379406D01*
X146970584Y-79414120D01*
X146949910Y-79438107D01*
X146945000Y-79456363D01*
X146752113Y-79456363D01*
X146753622Y-79441654D01*
X146789184Y-79346412D01*
X146848714Y-79271567D01*
X146925746Y-79219745D01*
X147013815Y-79193573D01*
X147106454Y-79195676D01*
X147197198Y-79228681D01*
X147279579Y-79295215D01*
X147325222Y-79361055D01*
X147358008Y-79455036D01*
X147363339Y-79504468D01*
X147370787Y-79573536D01*
X147364574Y-79721643D01*
G37*
X147364574Y-79721643D02*
X147361066Y-79753021D01*
X147334927Y-79864705D01*
X147287694Y-79949642D01*
X147215862Y-80014741D01*
X147211802Y-80017428D01*
X147120487Y-80055634D01*
X147025144Y-80059034D01*
X146933274Y-80029939D01*
X146852379Y-79970660D01*
X146789962Y-79883510D01*
X146788914Y-79881409D01*
X146768173Y-79827289D01*
X146752980Y-79765781D01*
X146744921Y-79708039D01*
X146745582Y-79665215D01*
X146756548Y-79648462D01*
X146766290Y-79649480D01*
X146812877Y-79668009D01*
X146865682Y-79702081D01*
X146910603Y-79741522D01*
X146933535Y-79776155D01*
X146957373Y-79823133D01*
X147006230Y-79865862D01*
X147062963Y-79882923D01*
X147083758Y-79877990D01*
X147124804Y-79853157D01*
X147160557Y-79818685D01*
X147175846Y-79787411D01*
X147175842Y-79787295D01*
X147158495Y-79772933D01*
X147112247Y-79747025D01*
X147044067Y-79713210D01*
X146960923Y-79675129D01*
X146960466Y-79674927D01*
X146870138Y-79634709D01*
X146809592Y-79605733D01*
X146772888Y-79583474D01*
X146754086Y-79563407D01*
X146747246Y-79541009D01*
X146746429Y-79511756D01*
X146752113Y-79456363D01*
X146945000Y-79456363D01*
X146964911Y-79473777D01*
X147014521Y-79499872D01*
X147015976Y-79500610D01*
X147074506Y-79528483D01*
X147126868Y-79550719D01*
X147160086Y-79560126D01*
X147173410Y-79547552D01*
X147175846Y-79504468D01*
X147165724Y-79450847D01*
X147130631Y-79402119D01*
X147079823Y-79376856D01*
X147023181Y-79379406D01*
X146970584Y-79414120D01*
X146949910Y-79438107D01*
X146945000Y-79456363D01*
X146752113Y-79456363D01*
X146753622Y-79441654D01*
X146789184Y-79346412D01*
X146848714Y-79271567D01*
X146925746Y-79219745D01*
X147013815Y-79193573D01*
X147106454Y-79195676D01*
X147197198Y-79228681D01*
X147279579Y-79295215D01*
X147325222Y-79361055D01*
X147358008Y-79455036D01*
X147363339Y-79504468D01*
X147370787Y-79573536D01*
X147364574Y-79721643D01*
G36*
X143931892Y-79267167D02*
G01*
X143938060Y-79270581D01*
X143988447Y-79309692D01*
X144033498Y-79359975D01*
X144041355Y-79371339D01*
X144056376Y-79397860D01*
X144067107Y-79429336D01*
X144074486Y-79472591D01*
X144079452Y-79534449D01*
X144082942Y-79621733D01*
X144085893Y-79741269D01*
X144086311Y-79761478D01*
X144087654Y-79892499D01*
X144085761Y-79985296D01*
X144080605Y-80040507D01*
X144072158Y-80058769D01*
X144046594Y-80053301D01*
X144003166Y-80036733D01*
X143992940Y-80031888D01*
X143976967Y-80020920D01*
X143965954Y-80002890D01*
X143958750Y-79971396D01*
X143954208Y-79920036D01*
X143951180Y-79842410D01*
X143948516Y-79732115D01*
X143947785Y-79699875D01*
X143944965Y-79598050D01*
X143941304Y-79526788D01*
X143935694Y-79479332D01*
X143927029Y-79448925D01*
X143914202Y-79428810D01*
X143896105Y-79412229D01*
X143842525Y-79383161D01*
X143776612Y-79377564D01*
X143717635Y-79399807D01*
X143675203Y-79445859D01*
X143658923Y-79511692D01*
X143658470Y-79529587D01*
X143649578Y-79561982D01*
X143623325Y-79566925D01*
X143571919Y-79547633D01*
X143560013Y-79541446D01*
X143527835Y-79505058D01*
X143527198Y-79450954D01*
X143557856Y-79376128D01*
X143585978Y-79335350D01*
X143657883Y-79277421D01*
X143746638Y-79244670D01*
X143841542Y-79240212D01*
X143931892Y-79267167D01*
G37*
X143931892Y-79267167D02*
X143938060Y-79270581D01*
X143988447Y-79309692D01*
X144033498Y-79359975D01*
X144041355Y-79371339D01*
X144056376Y-79397860D01*
X144067107Y-79429336D01*
X144074486Y-79472591D01*
X144079452Y-79534449D01*
X144082942Y-79621733D01*
X144085893Y-79741269D01*
X144086311Y-79761478D01*
X144087654Y-79892499D01*
X144085761Y-79985296D01*
X144080605Y-80040507D01*
X144072158Y-80058769D01*
X144046594Y-80053301D01*
X144003166Y-80036733D01*
X143992940Y-80031888D01*
X143976967Y-80020920D01*
X143965954Y-80002890D01*
X143958750Y-79971396D01*
X143954208Y-79920036D01*
X143951180Y-79842410D01*
X143948516Y-79732115D01*
X143947785Y-79699875D01*
X143944965Y-79598050D01*
X143941304Y-79526788D01*
X143935694Y-79479332D01*
X143927029Y-79448925D01*
X143914202Y-79428810D01*
X143896105Y-79412229D01*
X143842525Y-79383161D01*
X143776612Y-79377564D01*
X143717635Y-79399807D01*
X143675203Y-79445859D01*
X143658923Y-79511692D01*
X143658470Y-79529587D01*
X143649578Y-79561982D01*
X143623325Y-79566925D01*
X143571919Y-79547633D01*
X143560013Y-79541446D01*
X143527835Y-79505058D01*
X143527198Y-79450954D01*
X143557856Y-79376128D01*
X143585978Y-79335350D01*
X143657883Y-79277421D01*
X143746638Y-79244670D01*
X143841542Y-79240212D01*
X143931892Y-79267167D01*
G36*
X141071501Y-79246476D02*
G01*
X141152167Y-79276440D01*
X141185714Y-79298954D01*
X141219687Y-79331212D01*
X141243919Y-79372246D01*
X141260001Y-79428108D01*
X141269521Y-79504851D01*
X141274068Y-79608525D01*
X141275231Y-79745184D01*
X141275003Y-79815805D01*
X141273860Y-79912308D01*
X141271919Y-79989323D01*
X141269365Y-80040319D01*
X141266381Y-80058769D01*
X141246962Y-80052667D01*
X141207766Y-80036095D01*
X141206589Y-80035558D01*
X141186235Y-80024903D01*
X141172546Y-80010282D01*
X141164199Y-79984673D01*
X141159874Y-79941054D01*
X141158248Y-79872403D01*
X141158000Y-79771698D01*
X141157500Y-79707813D01*
X141152164Y-79587751D01*
X141139945Y-79499809D01*
X141119552Y-79439375D01*
X141089695Y-79401836D01*
X141049082Y-79382581D01*
X141043448Y-79381239D01*
X140967378Y-79380191D01*
X140908052Y-79414271D01*
X140867077Y-79482598D01*
X140859770Y-79502351D01*
X140843114Y-79546066D01*
X140834679Y-79566155D01*
X140817356Y-79563387D01*
X140779525Y-79548365D01*
X140744240Y-79523556D01*
X140728154Y-79476670D01*
X140732952Y-79443087D01*
X140762431Y-79374967D01*
X140810098Y-79311134D01*
X140865839Y-79266988D01*
X140889193Y-79256782D01*
X140977619Y-79239718D01*
X141071501Y-79246476D01*
G37*
X141071501Y-79246476D02*
X141152167Y-79276440D01*
X141185714Y-79298954D01*
X141219687Y-79331212D01*
X141243919Y-79372246D01*
X141260001Y-79428108D01*
X141269521Y-79504851D01*
X141274068Y-79608525D01*
X141275231Y-79745184D01*
X141275003Y-79815805D01*
X141273860Y-79912308D01*
X141271919Y-79989323D01*
X141269365Y-80040319D01*
X141266381Y-80058769D01*
X141246962Y-80052667D01*
X141207766Y-80036095D01*
X141206589Y-80035558D01*
X141186235Y-80024903D01*
X141172546Y-80010282D01*
X141164199Y-79984673D01*
X141159874Y-79941054D01*
X141158248Y-79872403D01*
X141158000Y-79771698D01*
X141157500Y-79707813D01*
X141152164Y-79587751D01*
X141139945Y-79499809D01*
X141119552Y-79439375D01*
X141089695Y-79401836D01*
X141049082Y-79382581D01*
X141043448Y-79381239D01*
X140967378Y-79380191D01*
X140908052Y-79414271D01*
X140867077Y-79482598D01*
X140859770Y-79502351D01*
X140843114Y-79546066D01*
X140834679Y-79566155D01*
X140817356Y-79563387D01*
X140779525Y-79548365D01*
X140744240Y-79523556D01*
X140728154Y-79476670D01*
X140732952Y-79443087D01*
X140762431Y-79374967D01*
X140810098Y-79311134D01*
X140865839Y-79266988D01*
X140889193Y-79256782D01*
X140977619Y-79239718D01*
X141071501Y-79246476D01*
G36*
X140610413Y-79704449D02*
G01*
X140605641Y-79807047D01*
X140593150Y-79882126D01*
X140570121Y-79937748D01*
X140533732Y-79981975D01*
X140481162Y-80022869D01*
X140447714Y-80041466D01*
X140394098Y-80053991D01*
X140318780Y-80053003D01*
X140276672Y-80049035D01*
X140225879Y-80036920D01*
X140185280Y-80010585D01*
X140138049Y-79961514D01*
X140131738Y-79954346D01*
X140089277Y-79899189D01*
X140069018Y-79851150D01*
X140063846Y-79794184D01*
X140063846Y-79710471D01*
X140122346Y-79732552D01*
X140164994Y-79758364D01*
X140202064Y-79818928D01*
X140209803Y-79838320D01*
X140253074Y-79893235D01*
X140311976Y-79920879D01*
X140376111Y-79918393D01*
X140435077Y-79882923D01*
X140455342Y-79860805D01*
X140473720Y-79827436D01*
X140467971Y-79797117D01*
X140434887Y-79765913D01*
X140371261Y-79729887D01*
X140273885Y-79685103D01*
X140073615Y-79597445D01*
X140068301Y-79510607D01*
X140070299Y-79455296D01*
X140200783Y-79455296D01*
X140210688Y-79489538D01*
X140255756Y-79526096D01*
X140337557Y-79567692D01*
X140351092Y-79573718D01*
X140415818Y-79601753D01*
X140464247Y-79621472D01*
X140486751Y-79628923D01*
X140490161Y-79623438D01*
X140491529Y-79589948D01*
X140486651Y-79536116D01*
X140474364Y-79483473D01*
X140436041Y-79417151D01*
X140380720Y-79379780D01*
X140314640Y-79374721D01*
X140244040Y-79405339D01*
X140224474Y-79420648D01*
X140200783Y-79455296D01*
X140070299Y-79455296D01*
X140070647Y-79445663D01*
X140100186Y-79363590D01*
X140137472Y-79318361D01*
X140214776Y-79267838D01*
X140306478Y-79242316D01*
X140401274Y-79244336D01*
X140487859Y-79276440D01*
X140506920Y-79288767D01*
X140550640Y-79326912D01*
X140580540Y-79375167D01*
X140598968Y-79440710D01*
X140608270Y-79530720D01*
X140609499Y-79589948D01*
X140610794Y-79652376D01*
X140610413Y-79704449D01*
G37*
X140610413Y-79704449D02*
X140605641Y-79807047D01*
X140593150Y-79882126D01*
X140570121Y-79937748D01*
X140533732Y-79981975D01*
X140481162Y-80022869D01*
X140447714Y-80041466D01*
X140394098Y-80053991D01*
X140318780Y-80053003D01*
X140276672Y-80049035D01*
X140225879Y-80036920D01*
X140185280Y-80010585D01*
X140138049Y-79961514D01*
X140131738Y-79954346D01*
X140089277Y-79899189D01*
X140069018Y-79851150D01*
X140063846Y-79794184D01*
X140063846Y-79710471D01*
X140122346Y-79732552D01*
X140164994Y-79758364D01*
X140202064Y-79818928D01*
X140209803Y-79838320D01*
X140253074Y-79893235D01*
X140311976Y-79920879D01*
X140376111Y-79918393D01*
X140435077Y-79882923D01*
X140455342Y-79860805D01*
X140473720Y-79827436D01*
X140467971Y-79797117D01*
X140434887Y-79765913D01*
X140371261Y-79729887D01*
X140273885Y-79685103D01*
X140073615Y-79597445D01*
X140068301Y-79510607D01*
X140070299Y-79455296D01*
X140200783Y-79455296D01*
X140210688Y-79489538D01*
X140255756Y-79526096D01*
X140337557Y-79567692D01*
X140351092Y-79573718D01*
X140415818Y-79601753D01*
X140464247Y-79621472D01*
X140486751Y-79628923D01*
X140490161Y-79623438D01*
X140491529Y-79589948D01*
X140486651Y-79536116D01*
X140474364Y-79483473D01*
X140436041Y-79417151D01*
X140380720Y-79379780D01*
X140314640Y-79374721D01*
X140244040Y-79405339D01*
X140224474Y-79420648D01*
X140200783Y-79455296D01*
X140070299Y-79455296D01*
X140070647Y-79445663D01*
X140100186Y-79363590D01*
X140137472Y-79318361D01*
X140214776Y-79267838D01*
X140306478Y-79242316D01*
X140401274Y-79244336D01*
X140487859Y-79276440D01*
X140506920Y-79288767D01*
X140550640Y-79326912D01*
X140580540Y-79375167D01*
X140598968Y-79440710D01*
X140608270Y-79530720D01*
X140609499Y-79589948D01*
X140610794Y-79652376D01*
X140610413Y-79704449D01*
D10*
%TO.C,SW2*%
X120780000Y-99274000D02*
X120780000Y-100290000D01*
X113235838Y-102195000D02*
X111509000Y-102195000D01*
X109350000Y-98385000D02*
X109350000Y-98766000D01*
X109350000Y-101814000D02*
X109350000Y-102195000D01*
X120780000Y-100290000D02*
X115700000Y-100290000D01*
X109731000Y-102195000D02*
X109350000Y-102195000D01*
X120780000Y-95845000D02*
X120780000Y-96226000D01*
X111890000Y-95845000D02*
X120780000Y-95845000D01*
X111890000Y-95845000D02*
G75*
G03*
X109350000Y-98385000I1J-2540001D01*
G01*
X115700000Y-100289999D02*
G75*
G03*
X113235838Y-102213960I0J-2540000D01*
G01*
%TO.C,SW3*%
X139830000Y-99274000D02*
X139830000Y-100290000D01*
X132285838Y-102195000D02*
X130559000Y-102195000D01*
X128781000Y-102195000D02*
X128400000Y-102195000D01*
X128400000Y-101814000D02*
X128400000Y-102195000D01*
X128400000Y-98385000D02*
X128400000Y-98766000D01*
X130940000Y-95845000D02*
X139830000Y-95845000D01*
X139830000Y-95845000D02*
X139830000Y-96226000D01*
X139830000Y-100290000D02*
X134750000Y-100290000D01*
X134750000Y-100289999D02*
G75*
G03*
X132285838Y-102213960I0J-2540000D01*
G01*
X130940000Y-95845000D02*
G75*
G03*
X128400000Y-98385000I1J-2540001D01*
G01*
%TO.C,SW8*%
X149980000Y-114895000D02*
X158870000Y-114895000D01*
X147440000Y-117435000D02*
X147440000Y-117816000D01*
X158870000Y-114895000D02*
X158870000Y-115276000D01*
X151325838Y-121245000D02*
X149599000Y-121245000D01*
X158870000Y-119340000D02*
X153790000Y-119340000D01*
X147440000Y-120864000D02*
X147440000Y-121245000D01*
X147821000Y-121245000D02*
X147440000Y-121245000D01*
X158870000Y-118324000D02*
X158870000Y-119340000D01*
X149980000Y-114895000D02*
G75*
G03*
X147440000Y-117435000I1J-2540001D01*
G01*
X153790000Y-119339999D02*
G75*
G03*
X151325838Y-121263960I0J-2540000D01*
G01*
%TO.C,SW6*%
X109350000Y-120814000D02*
X109350000Y-121195000D01*
X120780000Y-118274000D02*
X120780000Y-119290000D01*
X109350000Y-117385000D02*
X109350000Y-117766000D01*
X120780000Y-119290000D02*
X115700000Y-119290000D01*
X120780000Y-114845000D02*
X120780000Y-115226000D01*
X109731000Y-121195000D02*
X109350000Y-121195000D01*
X113235838Y-121195000D02*
X111509000Y-121195000D01*
X111890000Y-114845000D02*
X120780000Y-114845000D01*
X115700000Y-119289999D02*
G75*
G03*
X113235838Y-121213960I0J-2540000D01*
G01*
X111890000Y-114845000D02*
G75*
G03*
X109350000Y-117385000I1J-2540001D01*
G01*
%TO.C,U1*%
X153200000Y-55280000D02*
X153200000Y-85760000D01*
X140500000Y-55280000D02*
X140500000Y-52740000D01*
X148120000Y-55280000D02*
X153200000Y-55280000D01*
X135420000Y-55280000D02*
X140500000Y-55280000D01*
X135420000Y-85760000D02*
X135420000Y-55280000D01*
X153200000Y-85760000D02*
X135420000Y-85760000D01*
X140500000Y-52740000D02*
X148120000Y-52740000D01*
X148120000Y-52740000D02*
X148120000Y-55280000D01*
%TO.C,SW9*%
X177920000Y-119340000D02*
X172840000Y-119340000D01*
X166490000Y-120864000D02*
X166490000Y-121245000D01*
X177920000Y-114895000D02*
X177920000Y-115276000D01*
X166871000Y-121245000D02*
X166490000Y-121245000D01*
X170375838Y-121245000D02*
X168649000Y-121245000D01*
X166490000Y-117435000D02*
X166490000Y-117816000D01*
X177920000Y-118324000D02*
X177920000Y-119340000D01*
X169030000Y-114895000D02*
X177920000Y-114895000D01*
X169030000Y-114895000D02*
G75*
G03*
X166490000Y-117435000I1J-2540001D01*
G01*
X172840000Y-119339999D02*
G75*
G03*
X170375838Y-121263960I0J-2540000D01*
G01*
%TO.C,SW4*%
X147440000Y-101814000D02*
X147440000Y-102195000D01*
X151325838Y-102195000D02*
X149599000Y-102195000D01*
X149980000Y-95845000D02*
X158870000Y-95845000D01*
X147440000Y-98385000D02*
X147440000Y-98766000D01*
X147821000Y-102195000D02*
X147440000Y-102195000D01*
X158870000Y-100290000D02*
X153790000Y-100290000D01*
X158870000Y-99274000D02*
X158870000Y-100290000D01*
X158870000Y-95845000D02*
X158870000Y-96226000D01*
X153790000Y-100289999D02*
G75*
G03*
X151325838Y-102213960I0J-2540000D01*
G01*
X149980000Y-95845000D02*
G75*
G03*
X147440000Y-98385000I1J-2540001D01*
G01*
%TO.C,SW7*%
X139830000Y-114895000D02*
X139830000Y-115276000D01*
X128400000Y-117435000D02*
X128400000Y-117816000D01*
X128400000Y-120864000D02*
X128400000Y-121245000D01*
X132285838Y-121245000D02*
X130559000Y-121245000D01*
X139830000Y-118324000D02*
X139830000Y-119340000D01*
X128781000Y-121245000D02*
X128400000Y-121245000D01*
X130940000Y-114895000D02*
X139830000Y-114895000D01*
X139830000Y-119340000D02*
X134750000Y-119340000D01*
X134750000Y-119339999D02*
G75*
G03*
X132285838Y-121263960I0J-2540000D01*
G01*
X130940000Y-114895000D02*
G75*
G03*
X128400000Y-117435000I1J-2540001D01*
G01*
%TO.C,SW5*%
X177920000Y-100290000D02*
X172840000Y-100290000D01*
X166490000Y-101814000D02*
X166490000Y-102195000D01*
X177920000Y-99274000D02*
X177920000Y-100290000D01*
X166490000Y-98385000D02*
X166490000Y-98766000D01*
X169030000Y-95845000D02*
X177920000Y-95845000D01*
X166871000Y-102195000D02*
X166490000Y-102195000D01*
X170375838Y-102195000D02*
X168649000Y-102195000D01*
X177920000Y-95845000D02*
X177920000Y-96226000D01*
X169030000Y-95845000D02*
G75*
G03*
X166490000Y-98385000I1J-2540001D01*
G01*
X172840000Y-100289999D02*
G75*
G03*
X170375838Y-102213960I0J-2540000D01*
G01*
D12*
%TO.C,D8*%
X173920000Y-112870000D02*
X173920000Y-110630000D01*
X173200000Y-112870000D02*
X173200000Y-110630000D01*
X172550000Y-111750000D02*
X173200000Y-111750000D01*
X177440000Y-112870000D02*
X173200000Y-112870000D01*
X178090000Y-111750000D02*
X177440000Y-111750000D01*
X173200000Y-110630000D02*
X177440000Y-110630000D01*
X177440000Y-110630000D02*
X177440000Y-112870000D01*
X173800000Y-112870000D02*
X173800000Y-110630000D01*
X174040000Y-112870000D02*
X174040000Y-110630000D01*
%TO.C,D2*%
X134460000Y-92440000D02*
X135110000Y-92440000D01*
X135710000Y-93560000D02*
X135710000Y-91320000D01*
X140000000Y-92440000D02*
X139350000Y-92440000D01*
X139350000Y-91320000D02*
X139350000Y-93560000D01*
X139350000Y-93560000D02*
X135110000Y-93560000D01*
X135110000Y-93560000D02*
X135110000Y-91320000D01*
X135950000Y-93560000D02*
X135950000Y-91320000D01*
X135110000Y-91320000D02*
X139350000Y-91320000D01*
X135830000Y-93560000D02*
X135830000Y-91320000D01*
%TO.C,D5*%
X111490000Y-112870000D02*
X111490000Y-110630000D01*
X110240000Y-111750000D02*
X110890000Y-111750000D01*
X115130000Y-110630000D02*
X115130000Y-112870000D01*
X115130000Y-112870000D02*
X110890000Y-112870000D01*
X111610000Y-112870000D02*
X111610000Y-110630000D01*
X115780000Y-111750000D02*
X115130000Y-111750000D01*
X110890000Y-112870000D02*
X110890000Y-110630000D01*
X110890000Y-110630000D02*
X115130000Y-110630000D01*
X111730000Y-112870000D02*
X111730000Y-110630000D01*
%TO.C,SW11*%
X141750000Y-66170000D02*
X141750000Y-63270000D01*
X147190000Y-66170000D02*
X146700000Y-66660000D01*
X143430000Y-62000000D02*
X145510000Y-62000000D01*
X141750000Y-63270000D02*
X142240000Y-62780000D01*
X141750000Y-66170000D02*
X142240000Y-66660000D01*
X147190000Y-63270000D02*
X146700000Y-62780000D01*
X147190000Y-66170000D02*
X147190000Y-63270000D01*
X143430000Y-67440000D02*
X145510000Y-67440000D01*
%TO.C,D4*%
X173210000Y-93730000D02*
X173210000Y-91490000D01*
X174050000Y-93730000D02*
X174050000Y-91490000D01*
X173210000Y-91490000D02*
X177450000Y-91490000D01*
X173810000Y-93730000D02*
X173810000Y-91490000D01*
X178100000Y-92610000D02*
X177450000Y-92610000D01*
X173930000Y-93730000D02*
X173930000Y-91490000D01*
X172560000Y-92610000D02*
X173210000Y-92610000D01*
X177450000Y-93730000D02*
X173210000Y-93730000D01*
X177450000Y-91490000D02*
X177450000Y-93730000D01*
%TO.C,D3*%
X158400000Y-93710000D02*
X154160000Y-93710000D01*
X155000000Y-93710000D02*
X155000000Y-91470000D01*
X154160000Y-91470000D02*
X158400000Y-91470000D01*
X154760000Y-93710000D02*
X154760000Y-91470000D01*
X159050000Y-92590000D02*
X158400000Y-92590000D01*
X158400000Y-91470000D02*
X158400000Y-93710000D01*
X154880000Y-93710000D02*
X154880000Y-91470000D01*
X153510000Y-92590000D02*
X154160000Y-92590000D01*
X154160000Y-93710000D02*
X154160000Y-91470000D01*
%TO.C,D7*%
X148350000Y-111830000D02*
X149000000Y-111830000D01*
X149720000Y-112950000D02*
X149720000Y-110710000D01*
X149600000Y-112950000D02*
X149600000Y-110710000D01*
X149000000Y-112950000D02*
X149000000Y-110710000D01*
X153240000Y-110710000D02*
X153240000Y-112950000D01*
X149840000Y-112950000D02*
X149840000Y-110710000D01*
X153890000Y-111830000D02*
X153240000Y-111830000D01*
X149000000Y-110710000D02*
X153240000Y-110710000D01*
X153240000Y-112950000D02*
X149000000Y-112950000D01*
%TO.C,D6*%
X139360000Y-110620000D02*
X139360000Y-112860000D01*
X135960000Y-112860000D02*
X135960000Y-110620000D01*
X135720000Y-112860000D02*
X135720000Y-110620000D01*
X139360000Y-112860000D02*
X135120000Y-112860000D01*
X135840000Y-112860000D02*
X135840000Y-110620000D01*
X140010000Y-111740000D02*
X139360000Y-111740000D01*
X135120000Y-110620000D02*
X139360000Y-110620000D01*
X135120000Y-112860000D02*
X135120000Y-110620000D01*
X134470000Y-111740000D02*
X135120000Y-111740000D01*
%TO.C,D1*%
X116660000Y-93540000D02*
X116660000Y-91300000D01*
X116780000Y-93540000D02*
X116780000Y-91300000D01*
X120300000Y-91300000D02*
X120300000Y-93540000D01*
X116060000Y-93540000D02*
X116060000Y-91300000D01*
X120950000Y-92420000D02*
X120300000Y-92420000D01*
X116900000Y-93540000D02*
X116900000Y-91300000D01*
X120300000Y-93540000D02*
X116060000Y-93540000D01*
X116060000Y-91300000D02*
X120300000Y-91300000D01*
X115410000Y-92420000D02*
X116060000Y-92420000D01*
%TD*%
M02*
