M48
; DRILL file {KiCad (6.0.8)} date Sun Oct  1 17:03:33 2023
; FORMAT={-:-/ absolute / metric / decimal}
; #@! TF.CreationDate,2023-10-01T17:03:33+02:00
; #@! TF.GenerationSoftware,Kicad,Pcbnew,(6.0.8)
; #@! TF.FileFunction,Plated,1,2,PTH
FMAT,2
METRIC
; #@! TA.AperFunction,Plated,PTH,ViaDrill
T1C0.400
; #@! TA.AperFunction,Plated,PTH,ComponentDrill
T2C0.800
; #@! TA.AperFunction,Plated,PTH,ComponentDrill
T3C1.000
; #@! TA.AperFunction,Plated,PTH,ComponentDrill
T4C1.100
; #@! TA.AperFunction,Plated,PTH,ComponentDrill
T5C1.500
%
G90
G05
T1
X143.77Y-92.49
T2
X109.2Y-111.75
X114.37Y-92.42
X116.82Y-111.75
X121.99Y-92.42
X133.42Y-92.44
X133.43Y-111.74
X141.04Y-92.44
X141.05Y-111.74
X147.31Y-111.83
X152.47Y-92.59
X154.93Y-111.83
X160.09Y-92.59
X171.51Y-111.75
X171.52Y-92.61
X179.13Y-111.75
X179.14Y-92.61
T3
X110.78Y-66.08
X110.78Y-80.58
X113.28Y-66.08
X115.78Y-66.08
X115.78Y-80.58
X172.84Y-66.08
X172.84Y-80.58
X175.34Y-66.08
X177.84Y-66.08
X177.84Y-80.58
T4
X136.69Y-56.55
X136.69Y-59.09
X136.69Y-61.63
X136.69Y-64.17
X136.69Y-66.71
X136.69Y-69.25
X136.69Y-71.79
X136.69Y-74.33
X136.69Y-76.87
X136.69Y-79.41
X136.69Y-81.95
X136.69Y-84.49
X151.93Y-56.55
X151.93Y-59.09
X151.93Y-61.63
X151.93Y-64.17
X151.93Y-66.71
X151.93Y-69.25
X151.93Y-71.79
X151.93Y-74.33
X151.93Y-76.87
X151.93Y-79.41
X151.93Y-81.95
X151.93Y-84.49
T5
G00X107.68Y-72.93
M15
G01X107.68Y-74.23
M16
G05
G00X118.88Y-72.93
M15
G01X118.88Y-74.23
M16
G05
G00X169.74Y-72.93
M15
G01X169.74Y-74.23
M16
G05
G00X180.94Y-72.93
M15
G01X180.94Y-74.23
M16
G05
T0
M30
