%TF.GenerationSoftware,KiCad,Pcbnew,(6.0.8)*%
%TF.CreationDate,2023-10-01T17:03:22+02:00*%
%TF.ProjectId,macropad,6d616372-6f70-4616-942e-6b696361645f,rev?*%
%TF.SameCoordinates,Original*%
%TF.FileFunction,Soldermask,Bot*%
%TF.FilePolarity,Negative*%
%FSLAX46Y46*%
G04 Gerber Fmt 4.6, Leading zero omitted, Abs format (unit mm)*
G04 Created by KiCad (PCBNEW (6.0.8)) date 2023-10-01 17:03:22*
%MOMM*%
%LPD*%
G01*
G04 APERTURE LIST*
%ADD10R,2.000000X2.000000*%
%ADD11C,2.000000*%
%ADD12R,2.000000X3.200000*%
%ADD13C,1.701800*%
%ADD14C,3.987800*%
%ADD15C,3.000000*%
%ADD16R,2.550000X2.500000*%
%ADD17C,2.700000*%
%ADD18R,1.600000X1.600000*%
%ADD19C,1.600000*%
%ADD20O,1.600000X1.600000*%
%ADD21R,1.100000X1.800000*%
G04 APERTURE END LIST*
D10*
%TO.C,SW10*%
X177840000Y-66080000D03*
D11*
X172840000Y-66080000D03*
X175340000Y-66080000D03*
D12*
X180940000Y-73580000D03*
X169740000Y-73580000D03*
D11*
X172840000Y-80580000D03*
X177840000Y-80580000D03*
%TD*%
D13*
%TO.C,SW2*%
X110620000Y-102830000D03*
D14*
X115700000Y-102830000D03*
D13*
X120780000Y-102830000D03*
D15*
X118240000Y-97750000D03*
X111890000Y-100290000D03*
D16*
X121990000Y-97750000D03*
X108140000Y-100290000D03*
%TD*%
D15*
%TO.C,SW3*%
X137290000Y-97750000D03*
D13*
X129670000Y-102830000D03*
X139830000Y-102830000D03*
D14*
X134750000Y-102830000D03*
D15*
X130940000Y-100290000D03*
D16*
X141040000Y-97750000D03*
X127190000Y-100290000D03*
%TD*%
D15*
%TO.C,SW8*%
X149980000Y-119340000D03*
D13*
X158870000Y-121880000D03*
D14*
X153790000Y-121880000D03*
D13*
X148710000Y-121880000D03*
D15*
X156330000Y-116800000D03*
D16*
X160080000Y-116800000D03*
X146230000Y-119340000D03*
%TD*%
D17*
%TO.C,H3*%
X163310000Y-112350000D03*
%TD*%
%TO.C,H4*%
X125240000Y-112340000D03*
%TD*%
D10*
%TO.C,SW1*%
X115780000Y-66080000D03*
D11*
X110780000Y-66080000D03*
X113280000Y-66080000D03*
D12*
X118880000Y-73580000D03*
X107680000Y-73580000D03*
D11*
X110780000Y-80580000D03*
X115780000Y-80580000D03*
%TD*%
D15*
%TO.C,SW6*%
X118240000Y-116750000D03*
D13*
X120780000Y-121830000D03*
X110620000Y-121830000D03*
D15*
X111890000Y-119290000D03*
D14*
X115700000Y-121830000D03*
D16*
X121990000Y-116750000D03*
X108140000Y-119290000D03*
%TD*%
D18*
%TO.C,U1*%
X136690000Y-56550000D03*
D19*
X136690000Y-59090000D03*
X136690000Y-61630000D03*
X136690000Y-64170000D03*
X136690000Y-66710000D03*
X136690000Y-69250000D03*
X136690000Y-71790000D03*
X136690000Y-74330000D03*
X136690000Y-76870000D03*
X136690000Y-79410000D03*
X136690000Y-81950000D03*
X136690000Y-84490000D03*
X151930000Y-84490000D03*
X151930000Y-81950000D03*
X151930000Y-79410000D03*
X151930000Y-76870000D03*
X151930000Y-74330000D03*
X151930000Y-71790000D03*
X151930000Y-69250000D03*
X151930000Y-66710000D03*
X151930000Y-64170000D03*
X151930000Y-61630000D03*
X151930000Y-59090000D03*
X151930000Y-56550000D03*
%TD*%
D14*
%TO.C,SW9*%
X172840000Y-121880000D03*
D15*
X169030000Y-119340000D03*
D13*
X167760000Y-121880000D03*
X177920000Y-121880000D03*
D15*
X175380000Y-116800000D03*
D16*
X179130000Y-116800000D03*
X165280000Y-119340000D03*
%TD*%
D13*
%TO.C,SW4*%
X158870000Y-102830000D03*
D15*
X149980000Y-100290000D03*
X156330000Y-97750000D03*
D14*
X153790000Y-102830000D03*
D13*
X148710000Y-102830000D03*
D16*
X160080000Y-97750000D03*
X146230000Y-100290000D03*
%TD*%
D15*
%TO.C,SW7*%
X137290000Y-116800000D03*
D13*
X139830000Y-121880000D03*
X129670000Y-121880000D03*
D14*
X134750000Y-121880000D03*
D15*
X130940000Y-119340000D03*
D16*
X141040000Y-116800000D03*
X127190000Y-119340000D03*
%TD*%
D17*
%TO.C,H2*%
X161310000Y-70510000D03*
%TD*%
%TO.C,H1*%
X127310000Y-70520000D03*
%TD*%
D13*
%TO.C,SW5*%
X167760000Y-102830000D03*
D15*
X169030000Y-100290000D03*
X175380000Y-97750000D03*
D13*
X177920000Y-102830000D03*
D14*
X172840000Y-102830000D03*
D16*
X179130000Y-97750000D03*
X165280000Y-100290000D03*
%TD*%
D18*
%TO.C,D8*%
X171510000Y-111750000D03*
D20*
X179130000Y-111750000D03*
%TD*%
D18*
%TO.C,D2*%
X133420000Y-92440000D03*
D20*
X141040000Y-92440000D03*
%TD*%
D18*
%TO.C,D5*%
X109200000Y-111750000D03*
D20*
X116820000Y-111750000D03*
%TD*%
D21*
%TO.C,SW11*%
X146320000Y-67820000D03*
X146320000Y-61620000D03*
X142620000Y-61620000D03*
X142620000Y-67820000D03*
%TD*%
D18*
%TO.C,D4*%
X171520000Y-92610000D03*
D20*
X179140000Y-92610000D03*
%TD*%
D18*
%TO.C,D3*%
X152470000Y-92590000D03*
D20*
X160090000Y-92590000D03*
%TD*%
D18*
%TO.C,D7*%
X147310000Y-111830000D03*
D20*
X154930000Y-111830000D03*
%TD*%
D18*
%TO.C,D6*%
X133430000Y-111740000D03*
D20*
X141050000Y-111740000D03*
%TD*%
D18*
%TO.C,D1*%
X114370000Y-92420000D03*
D20*
X121990000Y-92420000D03*
%TD*%
M02*
