%TF.GenerationSoftware,KiCad,Pcbnew,(6.0.8)*%
%TF.CreationDate,2023-10-01T17:03:22+02:00*%
%TF.ProjectId,macropad,6d616372-6f70-4616-942e-6b696361645f,rev?*%
%TF.SameCoordinates,Original*%
%TF.FileFunction,Copper,L1,Top*%
%TF.FilePolarity,Positive*%
%FSLAX46Y46*%
G04 Gerber Fmt 4.6, Leading zero omitted, Abs format (unit mm)*
G04 Created by KiCad (PCBNEW (6.0.8)) date 2023-10-01 17:03:22*
%MOMM*%
%LPD*%
G01*
G04 APERTURE LIST*
%TA.AperFunction,ComponentPad*%
%ADD10R,2.000000X2.000000*%
%TD*%
%TA.AperFunction,ComponentPad*%
%ADD11C,2.000000*%
%TD*%
%TA.AperFunction,ComponentPad*%
%ADD12R,2.000000X3.200000*%
%TD*%
%TA.AperFunction,ComponentPad*%
%ADD13R,1.600000X1.600000*%
%TD*%
%TA.AperFunction,ComponentPad*%
%ADD14C,1.600000*%
%TD*%
%TA.AperFunction,ComponentPad*%
%ADD15O,1.600000X1.600000*%
%TD*%
%TA.AperFunction,ViaPad*%
%ADD16C,0.800000*%
%TD*%
%TA.AperFunction,Conductor*%
%ADD17C,0.250000*%
%TD*%
G04 APERTURE END LIST*
D10*
%TO.P,SW10,A,A*%
%TO.N,ROT2_A*%
X177840000Y-66080000D03*
D11*
%TO.P,SW10,B,B*%
%TO.N,ROT2_B*%
X172840000Y-66080000D03*
%TO.P,SW10,C,C*%
%TO.N,GND*%
X175340000Y-66080000D03*
D12*
%TO.P,SW10,MP*%
%TO.N,N/C*%
X180940000Y-73580000D03*
X169740000Y-73580000D03*
D11*
%TO.P,SW10,S1,S1*%
%TO.N,ROT2_S*%
X172840000Y-80580000D03*
%TO.P,SW10,S2,S2*%
%TO.N,GND*%
X177840000Y-80580000D03*
%TD*%
D10*
%TO.P,SW1,A,A*%
%TO.N,ROT1_A*%
X115780000Y-66080000D03*
D11*
%TO.P,SW1,B,B*%
%TO.N,ROT1_B*%
X110780000Y-66080000D03*
%TO.P,SW1,C,C*%
%TO.N,GND*%
X113280000Y-66080000D03*
D12*
%TO.P,SW1,MP*%
%TO.N,N/C*%
X118880000Y-73580000D03*
X107680000Y-73580000D03*
D11*
%TO.P,SW1,S1,S1*%
%TO.N,ROT1_S*%
X110780000Y-80580000D03*
%TO.P,SW1,S2,S2*%
%TO.N,GND*%
X115780000Y-80580000D03*
%TD*%
D13*
%TO.P,U1,1,TX*%
%TO.N,unconnected-(U1-Pad1)*%
X136690000Y-56550000D03*
D14*
%TO.P,U1,2,RX*%
%TO.N,unconnected-(U1-Pad2)*%
X136690000Y-59090000D03*
%TO.P,U1,3,GND*%
%TO.N,GND*%
X136690000Y-61630000D03*
%TO.P,U1,4,GND*%
X136690000Y-64170000D03*
%TO.P,U1,5,SDA*%
%TO.N,unconnected-(U1-Pad5)*%
X136690000Y-66710000D03*
%TO.P,U1,6,SCL*%
%TO.N,unconnected-(U1-Pad6)*%
X136690000Y-69250000D03*
%TO.P,U1,7,D4*%
%TO.N,ROT1_A*%
X136690000Y-71790000D03*
%TO.P,U1,8,C6*%
%TO.N,ROT1_B*%
X136690000Y-74330000D03*
%TO.P,U1,9,D7*%
%TO.N,ROT1_S*%
X136690000Y-76870000D03*
%TO.P,U1,10,E6*%
%TO.N,COL1*%
X136690000Y-79410000D03*
%TO.P,U1,11,B4*%
%TO.N,COL2*%
X136690000Y-81950000D03*
%TO.P,U1,12,B5*%
%TO.N,ROW1*%
X136690000Y-84490000D03*
%TO.P,U1,13,B6*%
%TO.N,COL3*%
X151930000Y-84490000D03*
%TO.P,U1,14,B2*%
%TO.N,COL4*%
X151930000Y-81950000D03*
%TO.P,U1,15,B3*%
%TO.N,ROW2*%
X151930000Y-79410000D03*
%TO.P,U1,16,B1*%
%TO.N,ROT2_S*%
X151930000Y-76870000D03*
%TO.P,U1,17,F7*%
%TO.N,ROT2_A*%
X151930000Y-74330000D03*
%TO.P,U1,18,F6*%
%TO.N,ROT2_B*%
X151930000Y-71790000D03*
%TO.P,U1,19,F5*%
%TO.N,unconnected-(U1-Pad19)*%
X151930000Y-69250000D03*
%TO.P,U1,20,F4*%
%TO.N,unconnected-(U1-Pad20)*%
X151930000Y-66710000D03*
%TO.P,U1,21,VCC*%
%TO.N,Net-(U1-Pad21)*%
X151930000Y-64170000D03*
%TO.P,U1,22,RST*%
%TO.N,RST*%
X151930000Y-61630000D03*
%TO.P,U1,23,GND*%
%TO.N,GND*%
X151930000Y-59090000D03*
%TO.P,U1,24,RAW*%
%TO.N,unconnected-(U1-Pad24)*%
X151930000Y-56550000D03*
%TD*%
D13*
%TO.P,D8,1,K*%
%TO.N,ROW2*%
X171510000Y-111750000D03*
D15*
%TO.P,D8,2,A*%
%TO.N,Net-(D8-Pad2)*%
X179130000Y-111750000D03*
%TD*%
D13*
%TO.P,D2,1,K*%
%TO.N,ROW1*%
X133420000Y-92440000D03*
D15*
%TO.P,D2,2,A*%
%TO.N,Net-(D2-Pad2)*%
X141040000Y-92440000D03*
%TD*%
D13*
%TO.P,D5,1,K*%
%TO.N,ROW2*%
X109200000Y-111750000D03*
D15*
%TO.P,D5,2,A*%
%TO.N,Net-(D5-Pad2)*%
X116820000Y-111750000D03*
%TD*%
D13*
%TO.P,D4,1,K*%
%TO.N,ROW1*%
X171520000Y-92610000D03*
D15*
%TO.P,D4,2,A*%
%TO.N,Net-(D4-Pad2)*%
X179140000Y-92610000D03*
%TD*%
D13*
%TO.P,D3,1,K*%
%TO.N,ROW1*%
X152470000Y-92590000D03*
D15*
%TO.P,D3,2,A*%
%TO.N,Net-(D3-Pad2)*%
X160090000Y-92590000D03*
%TD*%
D13*
%TO.P,D7,1,K*%
%TO.N,ROW2*%
X147310000Y-111830000D03*
D15*
%TO.P,D7,2,A*%
%TO.N,Net-(D7-Pad2)*%
X154930000Y-111830000D03*
%TD*%
D13*
%TO.P,D6,1,K*%
%TO.N,ROW2*%
X133430000Y-111740000D03*
D15*
%TO.P,D6,2,A*%
%TO.N,Net-(D6-Pad2)*%
X141050000Y-111740000D03*
%TD*%
D13*
%TO.P,D1,1,K*%
%TO.N,ROW1*%
X114370000Y-92420000D03*
D15*
%TO.P,D1,2,A*%
%TO.N,Net-(D1-Pad2)*%
X121990000Y-92420000D03*
%TD*%
D16*
%TO.N,ROW2*%
X143770000Y-92490000D03*
%TD*%
D17*
%TO.N,ROW1*%
X169600000Y-94530000D02*
X157500000Y-94530000D01*
X131460000Y-94400000D02*
X120460000Y-94400000D01*
X133420000Y-87760000D02*
X136690000Y-84490000D01*
X120460000Y-94400000D02*
X118480000Y-92420000D01*
X139100000Y-94490000D02*
X137050000Y-92440000D01*
X171520000Y-92610000D02*
X169600000Y-94530000D01*
X155560000Y-92590000D02*
X152470000Y-92590000D01*
X133420000Y-92440000D02*
X131460000Y-94400000D01*
X152470000Y-92590000D02*
X150570000Y-94490000D01*
X137050000Y-92440000D02*
X133420000Y-92440000D01*
X157500000Y-94530000D02*
X155560000Y-92590000D01*
X150570000Y-94490000D02*
X139100000Y-94490000D01*
X133420000Y-92440000D02*
X133420000Y-87760000D01*
X118480000Y-92420000D02*
X114370000Y-92420000D01*
%TO.N,ROW2*%
X131550000Y-111740000D02*
X127290000Y-107480000D01*
X165690000Y-107670000D02*
X151470000Y-107670000D01*
X145570000Y-113570000D02*
X135260000Y-113570000D01*
X135260000Y-113570000D02*
X133430000Y-111740000D01*
X169770000Y-111750000D02*
X165690000Y-107670000D01*
X143770000Y-87570000D02*
X143770000Y-92490000D01*
X151930000Y-79410000D02*
X143770000Y-87570000D01*
X171510000Y-111750000D02*
X169770000Y-111750000D01*
X127290000Y-107480000D02*
X113470000Y-107480000D01*
X133430000Y-111740000D02*
X131550000Y-111740000D01*
X151470000Y-107670000D02*
X147310000Y-111830000D01*
X113470000Y-107480000D02*
X109200000Y-111750000D01*
X147310000Y-111830000D02*
X145570000Y-113570000D01*
%TO.N,ROT1_A*%
X130980000Y-66080000D02*
X136690000Y-71790000D01*
X115780000Y-66080000D02*
X130980000Y-66080000D01*
%TO.N,ROT1_B*%
X124360000Y-74330000D02*
X119670000Y-69640000D01*
X136690000Y-74330000D02*
X124360000Y-74330000D01*
X114340000Y-69640000D02*
X110780000Y-66080000D01*
X119670000Y-69640000D02*
X114340000Y-69640000D01*
%TO.N,ROT1_S*%
X136690000Y-76870000D02*
X114490000Y-76870000D01*
X114490000Y-76870000D02*
X110780000Y-80580000D01*
%TO.N,ROT2_A*%
X168670000Y-70060000D02*
X173860000Y-70060000D01*
X151930000Y-74330000D02*
X164400000Y-74330000D01*
X164400000Y-74330000D02*
X168670000Y-70060000D01*
X173860000Y-70060000D02*
X177840000Y-66080000D01*
%TO.N,ROT2_B*%
X172840000Y-66080000D02*
X157640000Y-66080000D01*
X157640000Y-66080000D02*
X151930000Y-71790000D01*
%TO.N,ROT2_S*%
X169130000Y-76870000D02*
X172840000Y-80580000D01*
X151930000Y-76870000D02*
X169130000Y-76870000D01*
%TD*%
M02*
