%TF.GenerationSoftware,KiCad,Pcbnew,(6.0.8)*%
%TF.CreationDate,2023-10-01T17:03:22+02:00*%
%TF.ProjectId,macropad,6d616372-6f70-4616-942e-6b696361645f,rev?*%
%TF.SameCoordinates,Original*%
%TF.FileFunction,Legend,Top*%
%TF.FilePolarity,Positive*%
%FSLAX46Y46*%
G04 Gerber Fmt 4.6, Leading zero omitted, Abs format (unit mm)*
G04 Created by KiCad (PCBNEW (6.0.8)) date 2023-10-01 17:03:22*
%MOMM*%
%LPD*%
G01*
G04 APERTURE LIST*
%ADD10C,0.120000*%
%ADD11C,0.150000*%
%ADD12R,1.600000X1.600000*%
%ADD13C,1.600000*%
G04 APERTURE END LIST*
D10*
%TO.C,SW10*%
X181240000Y-79680000D02*
X178840000Y-79680000D01*
X169440000Y-79680000D02*
X169440000Y-75580000D01*
X175340000Y-73080000D02*
X175340000Y-74080000D01*
X181240000Y-67480000D02*
X169440000Y-67480000D01*
X181240000Y-71580000D02*
X181240000Y-67480000D01*
X169440000Y-71580000D02*
X169440000Y-67480000D01*
X179440000Y-66380000D02*
X179140000Y-66080000D01*
X179440000Y-65780000D02*
X179440000Y-66380000D01*
X179140000Y-66080000D02*
X179440000Y-65780000D01*
X181240000Y-75580000D02*
X181240000Y-79680000D01*
X175840000Y-73580000D02*
X174840000Y-73580000D01*
X171840000Y-79680000D02*
X169440000Y-79680000D01*
X176640000Y-79680000D02*
X174040000Y-79680000D01*
X178340000Y-73580000D02*
G75*
G03*
X178340000Y-73580000I-3000000J0D01*
G01*
D11*
%TO.C,SW2*%
X122700000Y-95830000D02*
X121700000Y-95830000D01*
X121700000Y-109830000D02*
X122700000Y-109830000D01*
X108700000Y-109830000D02*
X109700000Y-109830000D01*
X108700000Y-96830000D02*
X108700000Y-95830000D01*
X109700000Y-95830000D02*
X108700000Y-95830000D01*
X122700000Y-108830000D02*
X122700000Y-109830000D01*
X122700000Y-95830000D02*
X122700000Y-96830000D01*
X108700000Y-109830000D02*
X108700000Y-108830000D01*
%TO.C,SW3*%
X141750000Y-95830000D02*
X140750000Y-95830000D01*
X127750000Y-96830000D02*
X127750000Y-95830000D01*
X141750000Y-108830000D02*
X141750000Y-109830000D01*
X127750000Y-109830000D02*
X127750000Y-108830000D01*
X140750000Y-109830000D02*
X141750000Y-109830000D01*
X141750000Y-95830000D02*
X141750000Y-96830000D01*
X128750000Y-95830000D02*
X127750000Y-95830000D01*
X127750000Y-109830000D02*
X128750000Y-109830000D01*
%TO.C,SW8*%
X146790000Y-128880000D02*
X147790000Y-128880000D01*
X160790000Y-114880000D02*
X160790000Y-115880000D01*
X160790000Y-114880000D02*
X159790000Y-114880000D01*
X146790000Y-128880000D02*
X146790000Y-127880000D01*
X147790000Y-114880000D02*
X146790000Y-114880000D01*
X160790000Y-127880000D02*
X160790000Y-128880000D01*
X159790000Y-128880000D02*
X160790000Y-128880000D01*
X146790000Y-115880000D02*
X146790000Y-114880000D01*
D10*
%TO.C,SW1*%
X119180000Y-71580000D02*
X119180000Y-67480000D01*
X113280000Y-73080000D02*
X113280000Y-74080000D01*
X109780000Y-79680000D02*
X107380000Y-79680000D01*
X119180000Y-67480000D02*
X107380000Y-67480000D01*
X113780000Y-73580000D02*
X112780000Y-73580000D01*
X107380000Y-71580000D02*
X107380000Y-67480000D01*
X117380000Y-65780000D02*
X117380000Y-66380000D01*
X117380000Y-66380000D02*
X117080000Y-66080000D01*
X107380000Y-79680000D02*
X107380000Y-75580000D01*
X119180000Y-79680000D02*
X116780000Y-79680000D01*
X114580000Y-79680000D02*
X111980000Y-79680000D01*
X119180000Y-75580000D02*
X119180000Y-79680000D01*
X117080000Y-66080000D02*
X117380000Y-65780000D01*
X116280000Y-73580000D02*
G75*
G03*
X116280000Y-73580000I-3000000J0D01*
G01*
D11*
%TO.C,SW6*%
X122700000Y-114830000D02*
X121700000Y-114830000D01*
X109700000Y-114830000D02*
X108700000Y-114830000D01*
X108700000Y-115830000D02*
X108700000Y-114830000D01*
X122700000Y-114830000D02*
X122700000Y-115830000D01*
X121700000Y-128830000D02*
X122700000Y-128830000D01*
X108700000Y-128830000D02*
X109700000Y-128830000D01*
X122700000Y-127830000D02*
X122700000Y-128830000D01*
X108700000Y-128830000D02*
X108700000Y-127830000D01*
%TO.C,U1*%
X148120000Y-52740000D02*
X148120000Y-55280000D01*
X135420000Y-55280000D02*
X140500000Y-55280000D01*
X153200000Y-55280000D02*
X153200000Y-85760000D01*
X135420000Y-55280000D02*
X135420000Y-85760000D01*
X153200000Y-85760000D02*
X135420000Y-85760000D01*
X140500000Y-52740000D02*
X148120000Y-52740000D01*
X140500000Y-55280000D02*
X140500000Y-52740000D01*
X148120000Y-55280000D02*
X153200000Y-55280000D01*
%TO.C,SW9*%
X165840000Y-115880000D02*
X165840000Y-114880000D01*
X166840000Y-114880000D02*
X165840000Y-114880000D01*
X179840000Y-127880000D02*
X179840000Y-128880000D01*
X165840000Y-128880000D02*
X166840000Y-128880000D01*
X179840000Y-114880000D02*
X179840000Y-115880000D01*
X178840000Y-128880000D02*
X179840000Y-128880000D01*
X179840000Y-114880000D02*
X178840000Y-114880000D01*
X165840000Y-128880000D02*
X165840000Y-127880000D01*
%TO.C,SW4*%
X160790000Y-108830000D02*
X160790000Y-109830000D01*
X159790000Y-109830000D02*
X160790000Y-109830000D01*
X160790000Y-95830000D02*
X160790000Y-96830000D01*
X160790000Y-95830000D02*
X159790000Y-95830000D01*
X146790000Y-109830000D02*
X147790000Y-109830000D01*
X147790000Y-95830000D02*
X146790000Y-95830000D01*
X146790000Y-109830000D02*
X146790000Y-108830000D01*
X146790000Y-96830000D02*
X146790000Y-95830000D01*
%TO.C,SW7*%
X141750000Y-127880000D02*
X141750000Y-128880000D01*
X127750000Y-128880000D02*
X127750000Y-127880000D01*
X141750000Y-114880000D02*
X140750000Y-114880000D01*
X141750000Y-114880000D02*
X141750000Y-115880000D01*
X127750000Y-128880000D02*
X128750000Y-128880000D01*
X140750000Y-128880000D02*
X141750000Y-128880000D01*
X127750000Y-115880000D02*
X127750000Y-114880000D01*
X128750000Y-114880000D02*
X127750000Y-114880000D01*
%TO.C,SW5*%
X179840000Y-95830000D02*
X179840000Y-96830000D01*
X165840000Y-109830000D02*
X166840000Y-109830000D01*
X179840000Y-108830000D02*
X179840000Y-109830000D01*
X179840000Y-95830000D02*
X178840000Y-95830000D01*
X178840000Y-109830000D02*
X179840000Y-109830000D01*
X165840000Y-96830000D02*
X165840000Y-95830000D01*
X166840000Y-95830000D02*
X165840000Y-95830000D01*
X165840000Y-109830000D02*
X165840000Y-108830000D01*
%TD*%
D12*
%TO.C,U1*%
X136690000Y-56550000D03*
D13*
X136690000Y-59090000D03*
X136690000Y-61630000D03*
X136690000Y-64170000D03*
X136690000Y-66710000D03*
X136690000Y-69250000D03*
X136690000Y-71790000D03*
X136690000Y-74330000D03*
X136690000Y-76870000D03*
X136690000Y-79410000D03*
X136690000Y-81950000D03*
X136690000Y-84490000D03*
X151930000Y-84490000D03*
X151930000Y-81950000D03*
X151930000Y-79410000D03*
X151930000Y-76870000D03*
X151930000Y-74330000D03*
X151930000Y-71790000D03*
X151930000Y-69250000D03*
X151930000Y-66710000D03*
X151930000Y-64170000D03*
X151930000Y-61630000D03*
X151930000Y-59090000D03*
X151930000Y-56550000D03*
%TD*%
M02*
