M48
; DRILL file {KiCad (6.0.8)} date Sun Oct  1 17:03:33 2023
; FORMAT={-:-/ absolute / metric / decimal}
; #@! TF.CreationDate,2023-10-01T17:03:33+02:00
; #@! TF.GenerationSoftware,Kicad,Pcbnew,(6.0.8)
; #@! TF.FileFunction,NonPlated,1,2,NPTH
FMAT,2
METRIC
; #@! TA.AperFunction,NonPlated,NPTH,ComponentDrill
T1C1.702
; #@! TA.AperFunction,NonPlated,NPTH,ComponentDrill
T2C2.700
; #@! TA.AperFunction,NonPlated,NPTH,ComponentDrill
T3C3.000
; #@! TA.AperFunction,NonPlated,NPTH,ComponentDrill
T4C3.988
%
G90
G05
T1
X110.62Y-102.83
X110.62Y-121.83
X120.78Y-102.83
X120.78Y-121.83
X129.67Y-102.83
X129.67Y-121.88
X139.83Y-102.83
X139.83Y-121.88
X148.71Y-102.83
X148.71Y-121.88
X158.87Y-102.83
X158.87Y-121.88
X167.76Y-102.83
X167.76Y-121.88
X177.92Y-102.83
X177.92Y-121.88
T2
X125.24Y-112.34
X127.31Y-70.52
X161.31Y-70.51
X163.31Y-112.35
T3
X111.89Y-100.29
X111.89Y-119.29
X118.24Y-97.75
X118.24Y-116.75
X130.94Y-100.29
X130.94Y-119.34
X137.29Y-97.75
X137.29Y-116.8
X149.98Y-100.29
X149.98Y-119.34
X156.33Y-97.75
X156.33Y-116.8
X169.03Y-100.29
X169.03Y-119.34
X175.38Y-97.75
X175.38Y-116.8
T4
X115.7Y-102.83
X115.7Y-121.83
X134.75Y-102.83
X134.75Y-121.88
X153.79Y-102.83
X153.79Y-121.88
X172.84Y-102.83
X172.84Y-121.88
T0
M30
